<svg xmlns="http://www.w3.org/2000/svg" width="135" height="61" fill="none" xmlns:v="https://vecta.io/nano"><g clip-path="url(#B)"><path d="M19.296 39.064a6.43 6.43 0 0 1 1.083-3.574c.707-1.058 1.711-1.883 2.886-2.37s2.469-.615 3.717-.367 2.394.86 3.294 1.759a6.43 6.43 0 0 1 1.762 3.293c.249 1.248.122 2.541-.365 3.717s-1.31 2.181-2.368 2.888-2.301 1.085-3.573 1.086c-1.705-.001-3.34-.679-4.546-1.885s-1.884-2.841-1.885-4.546m-4.282 0c0 2.119.628 4.191 1.805 5.953s2.851 3.136 4.809 3.947 4.112 1.023 6.191.61 3.988-1.434 5.486-2.932 2.519-3.408 2.932-5.486.201-4.233-.61-6.191-2.185-3.631-3.947-4.808-3.834-1.805-5.953-1.805a10.72 10.72 0 0 0-10.713 10.713z" fill="#fff"/><mask id="A" maskUnits="userSpaceOnUse" x="15" y="28" width="22" height="22"><path d="M19.296 39.064a6.43 6.43 0 0 1 1.083-3.574c.707-1.058 1.711-1.883 2.886-2.37s2.469-.615 3.717-.367 2.394.86 3.294 1.759a6.43 6.43 0 0 1 1.762 3.293c.249 1.248.122 2.541-.365 3.717s-1.31 2.181-2.368 2.888-2.301 1.085-3.573 1.086c-1.705-.001-3.34-.679-4.546-1.885s-1.884-2.841-1.885-4.546m-4.282 0c0 2.119.628 4.191 1.805 5.953s2.851 3.136 4.809 3.947 4.112 1.023 6.191.61 3.988-1.434 5.486-2.932 2.519-3.408 2.932-5.486.201-4.233-.61-6.191-2.185-3.631-3.947-4.808-3.834-1.805-5.953-1.805a10.72 10.72 0 0 0-10.713 10.713z" fill="#fff"/></mask><g mask="url(#A)"><path d="M25.727 17.636l21.428 21.428L25.727 60.5 4.29 39.063l21.437-21.428z" fill="#fff"/></g><g fill="#fff"><path d="M40.722 15.495v23.569c-.04 3.953-1.638 7.731-4.448 10.513s-6.603 4.342-10.557 4.342-7.747-1.56-10.557-4.342-4.408-6.559-4.448-10.513v-2.141-.032c-.011-2.268-.918-4.439-2.524-6.04S4.407 28.35 2.14 28.347a2.14 2.14 0 0 0 .001 4.282A4.28 4.28 0 0 1 6.422 36.9v2.153a19.28 19.28 0 0 0 1.419 7.433c.959 2.359 2.376 4.506 4.169 6.315a19.29 19.29 0 0 0 6.278 4.225c2.351.98 4.873 1.485 7.42 1.485s5.069-.505 7.42-1.485a19.29 19.29 0 0 0 10.447-10.541 19.3 19.3 0 0 0 1.419-7.433V15.495c0-.567-.225-1.11-.626-1.511s-.944-.626-1.511-.626-1.11.225-1.511.626-.626.944-.626 1.511zM32.15 7.352v16.706a2.14 2.14 0 1 0 4.282 0V7.352a2.14 2.14 0 1 0-4.282 0zm-17.135 0v16.779a2.14 2.14 0 0 0 .655 1.462c.399.384.932.599 1.486.599a2.14 2.14 0 0 0 2.141-2.062V7.352a2.14 2.14 0 1 0-4.282 0zm8.563-4.706v19.59h.023c.059.524.31 1.007.703 1.358s.902.545 1.429.545 1.036-.194 1.429-.545a2.15 2.15 0 0 0 .703-1.358h.02V2.641A2.15 2.15 0 0 0 25.733.547a2.15 2.15 0 0 0-2.151 2.094m38.809 42.97c0 1.148-.655 1.803-1.87 1.803h-1.244c-3.443 0-5.71-1.996-5.71-5.014v-9.97H52.42c-1.218 0-1.9-.656-1.9-1.804s.685-1.804 1.9-1.804h1.244V25.94c0-1.504.79-2.362 2.228-2.362 1.475 0 2.266.848 2.266 2.362v2.882h2.691c1.218 0 1.871.656 1.871 1.803s-.656 1.804-1.871 1.804h-2.684v9.7c0 .984.627 1.667 1.611 1.667h.752c1.209.012 1.864.667 1.864 1.815zm2.556-21.938v-.521c0-1.34.819-2.103 2.294-2.103 1.504 0 2.295.752 2.295 2.103v.521c0 1.34-.79 2.103-2.295 2.103-1.475 0-2.294-.752-2.294-2.103zm0 21.668V30.886c0-1.504.819-2.362 2.294-2.362 1.504 0 2.295.848 2.295 2.362v14.456c0 1.504-.79 2.362-2.295 2.362-1.475-.002-2.294-.848-2.294-2.362zm25.67-9.142v3.837c0 4.62-2.951 7.706-7.377 7.706-2.266 0-4.128-.85-5.41-2.296v6.625c0 1.504-.79 2.363-2.294 2.363-1.475 0-2.296-.848-2.296-2.363V30.885c0-1.504.752-2.362 2.132-2.362 1.34 0 2.103.819 2.161 2.323v.305c1.282-1.707 3.278-2.651 5.708-2.651 4.426-.006 7.377 3.079 7.377 7.698zm-4.589.492c0-2.526-1.638-4.233-4.097-4.233s-4.099 1.707-4.099 4.233v2.853c0 2.528 1.64 4.195 4.099 4.195s4.097-1.672 4.097-4.195v-2.853zm7.144 8.622v-.352c0-1.571.888-2.39 2.488-2.39 1.573 0 2.459.819 2.459 2.39v.358c0 1.542-.848 2.39-2.459 2.39s-2.488-.854-2.488-2.397zm7.483-5.604v-3.182c0-4.821 3.472-8.032 8.65-8.032 2.758 0 5.544.914 6.75 3.414.327.723.231 2.101-1.148 2.555-1.218.356-1.996.029-2.459-.396-.955-1.147-1.967-1.609-3.143-1.609-2.436 0-4.059 1.675-4.059 4.195v2.949c0 2.488 1.638 4.128 4.097 4.128a4.12 4.12 0 0 0 3.278-1.611c.425-.423 1.149-.819 2.325-.423 1.34.423 1.572 1.609 1.34 2.436-.819 2.526-4.001 3.606-6.952 3.606-5.207.005-8.679-3.217-8.679-8.029zm17.994 0v-3.182c0-4.821 3.472-8.032 8.65-8.032 2.758 0 5.544.914 6.75 3.414.327.723.232 2.101-1.148 2.555-1.218.356-1.996.029-2.459-.396-.955-1.147-1.967-1.609-3.143-1.609-2.436 0-4.06 1.675-4.06 4.195v2.949c0 2.488 1.639 4.128 4.098 4.128a4.13 4.13 0 0 0 3.279-1.611c.424-.423 1.148-.819 2.325-.423 1.34.423 1.571 1.609 1.34 2.436-.82 2.526-4.002 3.606-6.953 3.606-5.198.005-8.679-3.217-8.679-8.029z"/></g></g><defs><clipPath id="B"><path fill="#fff" transform="translate(0 .5)" d="M0 0h134.36v60H0z"/></clipPath></defs></svg>