<svg xmlns="http://www.w3.org/2000/svg" width="354" height="61" fill="none" xmlns:v="https://vecta.io/nano"><g clip-path="url(#A)" fill="#fff"><path d="M236.695 42.693l-.967 1.484c-1.52 2.044-3.56 3.235-6.102 3.404a18.72 18.72 0 0 1-6.328-.563c-3.359-.938-5.931-2.922-7.248-6.176-2.026-5.01-2.304-10.158-.423-15.274 1.592-4.345 4.588-7.286 9.15-8.472a13.98 13.98 0 0 1 6.202-.248c2.173.419 3.911 1.584 5.26 3.345.217.274.334.626.823.899 0-1.036.044-1.975-.015-2.907-.041-.671.23-.795.83-.791l9.157.017c.819 0 .84.02.84.88l-.022 28.424a15.6 15.6 0 0 1-1.368 6.548c-1.438 3.12-3.989 4.966-7.13 6.057-3.235 1.121-6.6 1.292-9.993 1.11-2.655-.146-5.27-.528-7.73-1.616-3.173-1.406-5.285-3.693-5.963-7.186-.313-1.618-.317-1.616 1.273-1.618l8.672-.03c.652 0 .978.135 1.165.834.38 1.421 1.445 2.185 2.859 2.42a9.88 9.88 0 0 0 3.476-.05c1.883-.354 2.909-1.566 3.415-3.315.339-1.169.358-2.377.382-3.58s0-2.39 0-3.576l-.215-.02zm.143-10.01h.039c0-.763.024-1.521 0-2.288-.014-1.206-.298-2.394-.832-3.476-.651-1.236-1.609-2.144-2.989-2.418-2.487-.491-4.757.028-6.111 2.996-.923 2.025-1.086 4.178-.888 6.361.117 1.282.332 2.548.897 3.724.634 1.319 1.547 2.333 3.02 2.728a5.43 5.43 0 0 0 4.535-.764 5.42 5.42 0 0 0 2.323-3.97c.082-.969.006-1.931.006-2.894zm-209.184-10.4a10.84 10.84 0 0 1 2.172-2.711c1.799-1.577 3.856-2.568 6.283-2.707 2.342-.135 4.649-.024 6.884.776 2.023.723 3.524 1.999 4.43 3.982a14.51 14.51 0 0 1 1.419 6.159l-.069 19.871v.723c0 .298-.161.434-.434.434h-.602H37.59c-.217-.3-.126-.674-.126-1.023V30.564a9.34 9.34 0 0 0-.48-3.196c-.565-1.586-1.768-2.461-3.45-2.507a8.15 8.15 0 0 0-1.799.1c-1.955.382-3.293 1.938-3.626 4.149a20.2 20.2 0 0 0-.204 2.759l-.178 15.294a6.82 6.82 0 0 0-.02.841c.08.652-.239.793-.832.791-3.259-.02-6.506 0-9.758 0-.71 0-.71-.02-.71-.997l.015-27.34v-2.407c-.022-.53.172-.689.693-.684h9.637c.537 0 .695.176.676.691l-.011 2.891c.007.391-.087.802.239 1.334zm163.151-4.888c.202 1.658-.095 3.259.115 4.847.2-.02.291-.061.363-.178 1.986-3.259 4.873-5.036 8.69-5.214 2.211-.104 4.408.013 6.528.793a7.44 7.44 0 0 1 2.573 1.51 7.46 7.46 0 0 1 1.772 2.4 13.87 13.87 0 0 1 1.455 6.393c-.124 4.655-.015 9.313-.072 13.971v6.022c0 .858-.015.869-.84.869l-9.88.033c-.515 0-.602-.217-.598-.639v-4.217-13.732a8.23 8.23 0 0 0-.484-2.95c-.576-1.521-1.753-2.374-3.378-2.442-1.441-.061-2.825.109-3.911 1.164s-1.555 2.338-1.618 3.778c-.098 2.288-.141 4.575-.17 6.863l-.095 11.079c0 1.038-.02 1.047-1.058 1.049-3.133 0-6.265-.004-9.396-.013-.869 0-.869 0-.88-.945v-4.938-24.331c.012-.16.012-.32 0-.48-.095-.613.196-.728.752-.721l6.867.019 3.265.009zm-88.233 18.383h-9.63c-.936 0-.938.02-.821.949a10.92 10.92 0 0 0 .808 3.13c.619 1.377 1.642 2.24 3.154 2.498.712.132 1.439.163 2.159.091 1.484-.165 2.52-1.017 3.07-2.374.217-.563.517-.689 1.065-.684l9.51.024c.869 0 .858.022.691.897-.756 3.997-3.206 6.552-6.912 7.96-3.67 1.392-7.487 1.686-11.369 1.303a16.89 16.89 0 0 1-4.779-1.141c-3.476-1.423-6.007-3.839-7.356-7.349-1.668-4.345-2.036-8.816-.836-13.341 2.042-7.69 8.366-11.049 14.381-11.092 2.292-.017 4.562.128 6.796.708 4.164 1.086 7.06 3.537 8.848 7.462 1.52 3.356 1.809 6.86 1.714 10.458 0 .369-.165.5-.502.5h-.843-9.148zm-.993-6.126c-.081-1.224-.36-2.428-.825-3.563-.806-1.888-2.149-2.709-4.265-2.655-1.723.046-3.109 1.086-3.752 2.876a12.51 12.51 0 0 0-.689 3.341h9.53zm40.112-3.153c-.17.044-.343.076-.517.096l-8.673.026c-.499 0-.76-.076-.929-.636a3.82 3.82 0 0 0-2.369-2.465c-.559-.198-1.157-.264-1.746-.191a3.82 3.82 0 0 0-1.647.611c-1.29.836-1.26 2.991.065 3.771a4.75 4.75 0 0 0 1.828.563l7.273.984c3.234.652 6.006 2.262 6.925 5.616 1.521 5.57.022 11.121-5.991 13.686-1.748.714-3.599 1.144-5.483 1.275-3.693.33-7.271.072-10.699-1.542s-5.203-4.369-5.629-8.068a2.87 2.87 0 0 1 .028-.434h2.264 6.986c.517 0 .83.019.947.712.187 1.086.941 1.844 2.025 2.172a7.04 7.04 0 0 0 4.488-.124 2.36 2.36 0 0 0 1.262-1.062c.728-1.201.315-2.529-.981-3.089-1.119-.487-2.331-.558-3.52-.732l-4.762-.689a12.51 12.51 0 0 1-1.629-.406c-8.038-2.411-8.055-11.926-3.876-16.091 1.069-1.067 2.401-1.738 3.778-2.303 5.265-2.142 10.47-1.993 15.616.448 3.312 1.562 4.612 4.36 4.966 7.873zm172.54-2.6h6.53c.478 0 .622.185.611.639v2.839c.417-.024.456-.298.586-.476 1.554-2.14 3.628-3.348 6.283-3.504a12.25 12.25 0 0 1 3.587.267 6.59 6.59 0 0 1 2.746 1.299 6.57 6.57 0 0 1 1.87 2.394c.154.317.217.684.526.921.354.017.321-.309.434-.493 1.521-2.685 3.789-4.178 6.874-4.386a12.45 12.45 0 0 1 3.476.217c3.069.652 4.779 2.62 5.404 5.596a13.75 13.75 0 0 1 .305 2.868v15.776c0 .962-.02.969-.997.969-1.847 0-3.694-.02-5.54-.026-.897 0-.91 0-.91-.899V33.69c.029-.762-.044-1.525-.218-2.268-.536-1.955-1.54-2.739-3.547-2.698-2.694.054-4.332 1.503-4.725 4.182-.099.757-.132 1.521-.098 2.283l.293 12.759v.68c-.38.272-.751.169-1.103.172h-5.299c-.964 0-.977 0-.98-.982v-13.73a12.42 12.42 0 0 0-.054-1.681c-.456-3.224-2.035-4.273-5.344-3.454-1.792.434-2.633 1.862-3.024 3.561-.16.746-.232 1.508-.217 2.27l-.02 13.006c0 .982-.019.995-.967.997h-5.541c-.908 0-.913 0-.913-.901v-17.46-4.938l-.028-1.588zM48.327 17.382h10.706c.434 0 .602.159.719.584 1.814 6.478 4.002 12.85 5.431 19.435a3.67 3.67 0 0 0 .417 1.243c.387-.111.267-.45.315-.695a85.51 85.51 0 0 1 2.075-8.642l3.241-10.819c.278-.923.295-.91 1.193-.91l8.429-.015h1.412c.202.385-.015.652-.12.949L71.433 47.718c-.434 1.201-.269 1.069-1.521 1.071-3.211 0-6.422-.041-9.632 0-.736 0-1.054-.217-1.286-.899l-4.477-12.691-5.733-16.193c-.176-.487-.415-.954-.456-1.623zm113.989 7.667c-.569.306-1.097.139-1.608.143h-4.093c-.51 0-.716.172-.714.693l.011 11.431c.015.28.052.559.108.834.278 1.87 1.397 2.931 3.278 3.076a9.91 9.91 0 0 0 2.607-.165.4.4 0 0 1 .176.174c.039.075.054.16.041.244l-.021 6.86c0 .389-.013.717-.535.739-2.761.113-5.524.504-8.287.217-5.464-.563-8.149-4.269-8.521-9.359-.084-1.158 0-2.327 0-3.489V10.094c0-1.536-.217-1.349 1.304-1.356h8.424c1.521 0 1.239-.076 1.252 1.303l.021 6.378c0 .962.022.973 1.013.973l4.814-.028c.452 0 .743.017.734.621l-.004 7.063zm-150.125 1.52v20.955.723c.03.434-.202.558-.582.552h-.843H1.49c-.952 0-.956 0-.956-.986L.551 8.21V4.952c0-.452.126-.652.61-.652l10.478.035c.393 0 .608.119.574.547-.015.2 0 .402 0 .602v21.072l-.022.013zm299.581 9.229c.041 2.627-.263 4.729-1.126 6.7-1.859 4.252-5.255 6.448-9.776 6.952-1.992.217-3.997.18-5.95-.465-3.636-1.203-6.1-3.608-7.353-7.204-1.323-3.808-1.354-7.636.195-11.392 1.857-4.508 5.431-6.674 10.139-7.141a14.09 14.09 0 0 1 6.395.782c4.128 1.553 6.372 4.664 7.204 8.907a17.16 17.16 0 0 1 .272 2.861zm-17.38.68c0 .641-.045 1.286 0 1.92.088 1.279.412 2.532.956 3.693.917 1.87 2.594 2.705 4.649 2.374 1.91-.306 2.922-1.577 3.476-3.259.852-2.646.869-5.355.365-8.075-.175-1.027-.543-2.011-1.086-2.9-1.593-2.524-5.603-2.39-7.017 0a8.21 8.21 0 0 0-.869 1.842 13.5 13.5 0 0 0-.472 4.404h-.002zm-8.811-3.494h-5.351c-.2 0-.4-.02-.602-.024-1.129-.026-1.129-.024-1.403-1.188-.487-2.059-1.636-3.146-3.556-3.359-1.984-.217-3.476.615-4.386 2.468a8.55 8.55 0 0 0-.817 2.755c-.306 2.403-.352 4.799.306 7.169.093.348.209.689.35 1.021.914 2.094 2.457 2.952 4.714 2.642 2.055-.282 3.4-1.684 3.693-3.834.137-1.034.137-1.03 1.225-1.028h4.817c1.234 0 1.281.039 1.068 1.303-.599 3.578-2.354 6.27-5.887 7.573-3.693 1.364-7.421 1.597-11.146.089-2.922-1.18-4.908-3.291-5.996-6.22-1.521-4.093-1.386-8.203.263-12.209 1.331-3.239 3.799-5.331 7.195-6.217 3.345-.869 6.678-.78 9.921.502 3.139 1.238 4.96 3.565 5.498 6.884.068.487.318.984.094 1.673zm-109.505-15.5c.154.217.072.458.074.686l.019 29.26c0 1.334-.015 1.34-1.336 1.349l-8.907.035c-.956 0-1.023.248-1.021-1.043l.022-21.194V18.39c0-1.062-.111-1.004.947-1.006h9.513c.22.007.472-.08.689.1zm-11.568-9.226V3.444c-.016-.637.184-.917.838-1.034l9.8-1.838c.196-.037.398-.048.597-.067.352-.035.52.141.526.482v.602 9.268c0 1.019 0 1.047-.897 1.212l-10.061 1.808c-.782.137-.803.113-.808-.684V8.258h.005zm90.961 33.084h3.241c.517-.013.715.159.708.684l-.021 6.246c0 .411-.155.576-.559.573-2.242 0-4.484-.011-6.734 0-.435 0-.543-.2-.539-.587l.03-6.246c0-.547.255-.667.741-.652h3.124l.009-.02z"/></g><defs><clipPath id="A"><path fill="#fff" transform="translate(.534 .5)" d="M0 0h352.898v60H0z"/></clipPath></defs></svg>