<svg xmlns="http://www.w3.org/2000/svg" width="233" height="55" fill="none" xmlns:v="https://vecta.io/nano"><g clip-path="url(#A)"><path d="M107.09 54.901c-.025.031-.047.065-.069.096-.052-.042-.102-.088-.148-.136l.062-.09.155.13z" fill="#14425a"/><g fill="#fdfdfd"><path d="M74.742 3.722H109.9c-.664 3.446-1.604 6.728-2.385 10.211-7.277.158-14.532 0-21.855.118v7.302h20.298c.331 1.039.412 8.651.136 10.394H85.682v8.189h23.146c.133 3.458.096 6.79.083 10.301l-34.119.047-.05-46.56zm89.972 42.649l-.062 1.929v1.895h-9.91l-.069-1.411-.037-16.269a24.22 24.22 0 0 0-.133-2.962c-.394-2.968-2.59-4.739-5.32-4.389-2.038.273-3.644 1.994-3.954 4.342a23.81 23.81 0 0 0-.152 3.102v16.269 1.318l-9.966.115-.081-1.399-.028-17.168a16.5 16.5 0 0 0-.136-2.444c-.332-2.171-1.933-3.843-3.884-4.122a4.56 4.56 0 0 0-3.155.65c-.937.593-1.626 1.508-1.938 2.573a8.75 8.75 0 0 0-.356 2.537v17.816 1.458l-9.889.102c-.344-1.551-.394-31.241-.068-33.964a4.25 4.25 0 0 1 .692-.105h5.809c.658 0 1.015.205 1.225.856.249.769.621 1.495 1.04 2.432 2.692-2.481 5.7-3.821 9.286-3.629 3.521.186 6.514 1.445 8.831 4.249l2.466-1.861a13.39 13.39 0 0 1 12.593-1.511c3.669 1.464 5.688 4.358 6.513 8.089.363 1.68.554 3.393.571 5.112.081 4.56.031 9.122.04 13.682 0 .471.044.931.066 1.414l.006 1.293zM.66 14.051L.61 4.249.679.071 1.916 0 28.12.04c7.063.053 13.179 2.587 18.353 7.367 5.924 5.471 8.595 12.385 8.496 20.316-.093 7.28-2.854 13.555-8.024 18.725a4.09 4.09 0 0 1-.72.465c-.53-.763-.977-1.61-1.61-2.277-1.743-1.836-3.607-3.558-5.341-5.403a5.37 5.37 0 0 0-3.378-1.65c.273-.27.54-.549.819-.806a13 13 0 0 0 3.356-14.203c-1.79-4.867-6.538-8.356-11.768-8.455-4.519-.087-9.042 0-13.561 0-1.241-.099-2.481-.264-3.722-.282-2.999-.04-6.002-.022-8.995 0a9.12 9.12 0 0 0-1.365.214zm170.881 15.273c.028-.125.048-.251.059-.378l.031-19.395c-.01-.128-.031-.254-.062-.378V7.885l.17-4.085.891.208 7.959 2.621c1.039.347 1.042.369 1.045 1.458v9.305 1.275l1.023-.574c4.938-3.08 9.969-2.95 14.929-.189 4.895 2.726 7.41 7.174 8.241 12.577.781 4.736-.342 9.589-3.123 13.502-3.536 5.121-10.059 7.677-15.841 6.266-2.087-.509-4.032-1.48-6.321-3.198-.372.779-.794 1.507-1.076 2.289-.239.667-.574.931-1.309.931-2.103-.047-4.206-.016-6.433-.016-.034-.515-.087-.968-.087-1.424l-.037-10.589c0-.471-.044-.931-.065-1.414l.006-7.503zm24.634 3.812c-.208-1.005-.31-2.047-.645-3.006-1.024-2.885-3.018-4.671-6.139-4.963s-5.518.93-6.991 3.645a8.93 8.93 0 0 0-.167 8.564 7.15 7.15 0 0 0 2.213 2.649c.943.689 2.04 1.138 3.196 1.306a7.16 7.16 0 0 0 3.435-.341c1.1-.392 2.088-1.047 2.877-1.908 1.579-1.647 2.066-3.707 2.221-5.946z"/><path opacity=".55" d="M35.896 37.584a5.37 5.37 0 0 1 3.378 1.65l5.341 5.403c.62.667 1.079 1.514 1.61 2.277-1.861 2.215-4.299 3.645-6.864 4.829-4.411 2.076-9.301 2.921-14.153 2.444-.31-.031-.596 0-.896-.019l-.574-.062-.968-.183-.537-.09-1.821-.45c-.31-.121-.636-.251-.958-.36-6.514-2.23-11.641-6.203-15.068-12.196-1.141-1.991-1.861-4.212-2.792-6.331l-.264-.89c.011-.011.02-.025.025-.04s.006-.032.003-.047-.01-.03-.02-.043-.023-.022-.038-.028l-.509-3.93c-.028-.51-.028-1.022 0-1.532l-.081-3.75-.05-10.186a9.13 9.13 0 0 1 1.374-.208h8.995c1.241.019 2.481.183 3.722.282l.031 12.519a18.29 18.29 0 0 0 .236 2.823c1.101 6.715 7.615 11.588 14.346 10.72 2.395-.31 4.535-1.29 6.532-2.602z"/><path d="M212.127 29.324v-.788-4.563-4.653l.189-3.068 1.957-.05h4.389c.711-.025 1.101.168 1.322.887.276.9.685 1.756 1.11 2.813 2.981-3.306 6.514-4.78 10.881-3.703.31.98.425 7.053.195 10.254-.288-.068-.561-.149-.837-.195-.92-.204-1.853-.345-2.792-.422-3.049-.081-5.304 1.653-5.995 4.618-.212.966-.316 1.952-.31 2.941v15.36 1.399h-9.982l-.136-9.212.077-7.54c.006-1.359-.046-2.72-.068-4.079z"/></g><path d="M1.587 34.498l-.264-.89.264.89z" fill="#14425a"/></g><defs><clipPath id="A"><path fill="#fff" transform="translate(.61)" d="M0 0h231.684v55H0z"/></clipPath></defs></svg>