<svg xmlns="http://www.w3.org/2000/svg" width="399" height="55" fill="none" xmlns:v="https://vecta.io/nano"><g clip-path="url(#A)" fill="#fff"><path d="M14.881 55c-5.502 0-9.463-1.233-11.882-3.7C1.196 49.497.294 47.078.294 44.042c0-.996.095-2.063.285-3.202l4.838-27.535 13.021-5.408-2.063 11.882h19.638l-1.779 10.032H14.596l-1.423 8.04c-.19.901-.285 1.708-.285 2.419 0 2.988 1.423 4.483 4.269 4.483 1.518 0 2.787-.64 3.807-1.921s1.72-2.988 2.099-5.123h11.811C32.882 49.236 26.217 55 14.881 55zm42.016-36.216c5.123 0 8.989 1.115 11.598 3.344 2.04 1.755 3.06 4.198 3.06 7.329 0 1.043-.119 2.182-.356 3.415l-1.494 8.325c-.901 5.028-3 8.586-6.297 10.673S55.711 55 50.209 55s-9.534-1.044-12.096-3.131c-1.897-1.565-2.846-3.913-2.846-7.044 0-1.091.119-2.301.356-3.629l1.494-8.325c1.66-9.392 8.254-14.088 19.78-14.088zm1.921 15.511c.095-.474.142-1.079.142-1.814s-.308-1.554-.925-2.455-1.696-1.352-3.237-1.352-2.834.51-3.878 1.53-1.708 2.383-1.992 4.091l-.925 5.336c-.095.474-.142 1.079-.142 1.814s.308 1.53.925 2.384 1.696 1.281 3.237 1.281 2.834-.534 3.878-1.601 1.708-2.36 1.992-3.878l.925-5.336zm47.922 10.602c1.091 0 2.063-.237 2.917-.712l-.356 8.04c-2.229 1.85-4.957 2.775-8.182 2.775s-5.609-.854-7.151-2.561-2.739-4.578-3.593-8.609l-.213-.996c-.996.142-2.49.261-4.483.356l-1.921 10.815H71.662L81.196 0h12.096l-4.127 23.409c2.799-3.083 6.593-4.625 11.385-4.625 3.225 0 5.609.794 7.15 2.384s2.313 3.712 2.313 6.368c0 5.123-2.68 9.131-8.04 12.025l.782 2.633c.522 1.803 1.85 2.704 3.985 2.704zM94.431 28.461c-2.561 0-4.838 1.21-6.831 3.629l-.783 4.696c7.02-.285 10.531-2.158 10.531-5.621 0-.806-.249-1.459-.747-1.957s-1.222-.747-2.17-.747zM126.771 55c-9.867 0-14.8-3.415-14.8-10.246a17.89 17.89 0 0 1 .285-3.059l1.494-8.823c.806-4.554 2.905-8.052 6.297-10.495s7.886-3.664 13.483-3.664c9.534 0 14.301 3.605 14.301 10.815 0 1.044-.094 2.182-.284 3.415l-.854 5.052h-21.701l-.285 1.636a9.56 9.56 0 0 0-.142 1.565c0 2.609 1.542 3.913 4.625 3.913 1.138 0 2.111-.356 2.917-1.067s1.281-1.542 1.423-2.49l11.811.142C143.776 50.565 137.586 55 126.771 55zm8.538-21.345c.19-.806.284-1.553.284-2.241s-.308-1.387-.925-2.099-1.6-1.067-2.952-1.067-2.585.451-3.7 1.352-1.886 2.253-2.313 4.056h9.606zm36.182-1.494c0-2.04-.984-3.06-2.953-3.06s-3.593.735-4.874 2.206l-3.984 22.697h-12.096l6.048-34.224h11.242l-.783 4.198c2.799-3.463 6.333-5.194 10.602-5.194s7.044 1.044 8.324 3.131c.807 1.328 1.21 2.846 1.21 4.554s-.119 3.297-.356 4.767l-1.921 10.957c-.047.285-.071.546-.071.783 0 1.281.711 1.921 2.134 1.921 1.091 0 2.064-.237 2.918-.712l-.356 8.04c-2.229 1.85-4.767 2.775-7.613 2.775-6.451 0-9.677-2.704-9.677-8.111 0-.949.095-1.969.285-3.059l1.707-9.463c.143-.854.214-1.589.214-2.206zm75.458 12.736c1.09 0 2.063-.237 2.917-.712l-.356 8.04c-2.229 1.85-4.767 2.775-7.613 2.775-6.451 0-9.677-2.704-9.677-8.111 0-.949.095-1.969.285-3.059l1.494-8.752a15.59 15.59 0 0 0 .213-2.561c0-2.277-1.245-3.415-3.735-3.415s-4.447.972-5.87 2.917l-3.842 21.986h-12.096l3.344-18.926a15.59 15.59 0 0 0 .214-2.561c0-2.277-1.281-3.415-3.843-3.415-2.039 0-3.794.783-5.265 2.348l-3.984 22.555h-12.096l6.048-34.224h11.242l-.783 4.269c2.846-3.51 6.451-5.265 10.815-5.265 6.167 0 9.677 2.04 10.531 6.119 2.846-4.079 6.652-6.119 11.419-6.119s7.863 1.067 9.286 3.202a8.75 8.75 0 0 1 1.423 4.838c0 1.755-.119 3.344-.356 4.767l-1.779 10.602c-.047.285-.071.546-.071.783 0 1.281.711 1.921 2.135 1.921zM265.342 55c-9.866 0-14.799-3.415-14.799-10.246a17.89 17.89 0 0 1 .285-3.059l1.494-8.823c.806-4.554 2.905-8.052 6.297-10.495s7.886-3.664 13.483-3.664c9.534 0 14.301 3.605 14.301 10.815 0 1.044-.095 2.182-.284 3.415l-.854 5.052h-21.701l-.285 1.636a9.56 9.56 0 0 0-.142 1.565c0 2.609 1.541 3.913 4.625 3.913 1.138 0 2.11-.356 2.917-1.067s1.281-1.542 1.423-2.49l11.811.142C282.348 50.565 276.157 55 265.342 55zm8.539-21.345c.189-.806.284-1.553.284-2.241s-.308-1.387-.925-2.099-1.601-1.067-2.953-1.067-2.585.451-3.699 1.352-1.886 2.253-2.313 4.056h9.606zm47.779-6.617a13.77 13.77 0 0 1-.818 4.696c-.545 1.518-1.079 2.633-1.601 3.344l-.783.996h-10.743c1.185-1.091 1.778-2.443 1.778-4.056 0-.854-.272-1.553-.818-2.099s-1.292-.818-2.241-.818c-1.613 0-3.012.806-4.198 2.419l-3.985 22.484h-12.095l6.048-34.224h11.242l-.854 4.767c2.703-3.842 5.976-5.763 9.819-5.763 3.083 0 5.395.735 6.937 2.206s2.312 3.486 2.312 6.048zM335.003 55c-9.867 0-14.8-3.415-14.8-10.246a17.89 17.89 0 0 1 .285-3.059l1.494-8.823c.759-4.554 2.834-8.04 6.226-10.459s7.696-3.652 12.914-3.7c10.103 0 15.155 3.51 15.155 10.53 0 1.518-.178 2.882-.534 4.091s-.723 2.028-1.103 2.455l-.569.712h-12.096c1.186-1.044 1.779-2.277 1.779-3.7 0-2.561-1.28-3.842-3.842-3.842-1.518 0-2.822.451-3.913 1.352s-1.803 2.277-2.135 4.127l-.925 5.194a6.89 6.89 0 0 0-.142 1.352c0 2.514 1.565 3.771 4.696 3.771a4.38 4.38 0 0 0 2.81-.996c.83-.664 1.317-1.399 1.459-2.206l11.811.142C352.008 50.565 345.818 55 335.003 55zm58.594-10.103c1.091 0 2.064-.237 2.918-.712l-.356 8.04c-2.229 1.85-4.767 2.775-7.613 2.775-6.451 0-9.677-2.704-9.677-8.111 0-.949.095-1.968.285-3.059l1.565-8.752a15.59 15.59 0 0 0 .214-2.561c0-2.277-1.198-3.415-3.594-3.415s-4.257.806-5.585 2.419l-3.984 22.484h-12.096L365.208 0h12.096l-4.056 22.982c2.609-2.799 5.882-4.198 9.819-4.198 4.791 0 7.898 1.067 9.321 3.202a8.12 8.12 0 0 1 1.494 4.767c0 1.755-.142 3.368-.427 4.838l-1.921 10.602c-.047.285-.071.546-.071.783 0 1.281.711 1.921 2.134 1.921z"/></g><defs><clipPath id="A"><path fill="#fff" transform="translate(.294)" d="M0 0h398.2v55H0z"/></clipPath></defs></svg>