<svg xmlns="http://www.w3.org/2000/svg" width="405" height="55" fill="none" xmlns:v="https://vecta.io/nano"><g clip-path="url(#A)" fill="#fff"><path d="M.429 53.891V2.912h11.725l22.941 31.316-.655-5.972-.291-6.045-.073-7.428V2.912H46.82v50.979H34.949L12.3 23.231l.51 5.389.291 4.224.073 4.734v16.313H.429zm82.338.729c-3.836 0-7.38-.656-10.633-1.966s-6.069-3.156-8.448-5.535-4.224-5.171-5.535-8.375-1.966-6.724-1.966-10.56.655-7.355 1.966-10.56c1.311-3.253 3.156-6.069 5.535-8.448s5.195-4.224 8.448-5.535 6.797-1.966 10.633-1.966c3.884 0 7.453.655 10.706 1.966s6.069 3.156 8.448 5.535 4.224 5.195 5.535 8.448c1.311 3.204 1.966 6.724 1.966 10.56 0 3.787-.655 7.307-1.966 10.56-1.311 3.204-3.156 5.996-5.535 8.375s-5.195 4.224-8.448 5.535-6.821 1.966-10.706 1.966zm0-12.235c2.573 0 4.855-.607 6.846-1.821 1.991-1.262 3.569-2.962 4.734-5.098s1.748-4.564 1.748-7.283c0-2.767-.583-5.219-1.748-7.355s-2.743-3.811-4.734-5.025-4.272-1.821-6.846-1.821-4.855.607-6.846 1.821-3.568 2.889-4.734 5.025c-1.117 2.136-1.675 4.588-1.675 7.355 0 2.719.558 5.147 1.675 7.283 1.165 2.136 2.743 3.836 4.734 5.098 1.991 1.214 4.273 1.821 6.846 1.821zm44.607 11.506L112.299 2.912h13.327l7.21 25.999.874 3.641.656 3.423.655-3.423 1.092-3.714 7.283-19.663h10.342l7.21 19.663 1.092 3.569.874 3.132.437-2.986c.194-1.068.485-2.306.874-3.714l7.21-25.927h12.963l-15.221 50.979h-10.05l-11.07-26.946-10.123 26.946h-10.56zm63.857.001V2.913h5.244l31.972 42.313-.292-5.171-.218-6.336-.146-6.409v-5.753V2.913h5.754v50.979h-5.316l-32.044-41.949.436 8.302.292 6.773.072 3.714v23.159h-5.754zm71.963.729c-3.738 0-7.089-.85-10.05-2.549a19.31 19.31 0 0 1-6.918-7.064c-1.7-3.01-2.549-6.433-2.549-10.269 0-3.787.849-7.161 2.549-10.123 1.699-3.01 4.005-5.365 6.918-7.064 2.961-1.699 6.312-2.549 10.05-2.549s7.065.85 9.978 2.549c2.96 1.699 5.267 4.054 6.919 7.064 1.699 2.962 2.549 6.336 2.549 10.123 0 3.836-.85 7.259-2.549 10.269-1.652 2.962-3.959 5.316-6.919 7.064-2.913 1.699-6.24 2.549-9.978 2.549zm0-5.244c2.671 0 5.024-.631 7.065-1.893a13.17 13.17 0 0 0 4.878-5.171c1.166-2.233 1.748-4.758 1.748-7.574s-.582-5.292-1.748-7.428a13.17 13.17 0 0 0-4.878-5.171c-2.041-1.262-4.394-1.893-7.065-1.893s-5.05.631-7.137 1.893-3.715 2.986-4.879 5.171-1.749 4.661-1.749 7.428c0 2.816.582 5.341 1.749 7.574a13.15 13.15 0 0 0 4.879 5.171c2.087 1.262 4.467 1.893 7.137 1.893zm42.926 5.244c-3.497 0-6.628-.85-9.395-2.549-2.72-1.699-4.88-4.03-6.482-6.991-1.554-3.01-2.329-6.433-2.329-10.269 0-3.787.8-7.161 2.403-10.123 1.602-3.01 3.762-5.365 6.48-7.064 2.72-1.748 5.779-2.622 9.177-2.622 2.914 0 5.584.68 8.011 2.039 2.475 1.311 4.395 2.937 5.753 4.879V0h5.536v53.892h-5.462l-.146-6.409c-1.214 1.991-3.059 3.69-5.534 5.098-2.477 1.36-5.148 2.039-8.012 2.039zm.729-5.098c2.524 0 4.781-.631 6.772-1.894s3.545-2.986 4.66-5.171c1.167-2.233 1.749-4.782 1.749-7.647s-.582-5.389-1.749-7.574c-1.115-2.233-2.67-3.981-4.66-5.244s-4.248-1.893-6.772-1.893c-2.574 0-4.855.631-6.847 1.893s-3.544 3.01-4.662 5.244c-1.115 2.185-1.674 4.709-1.674 7.574 0 2.816.559 5.341 1.674 7.574s2.671 3.981 4.662 5.243 4.273 1.894 6.847 1.894zm45.885 5.098c-3.835 0-7.233-.825-10.196-2.476a17.69 17.69 0 0 1-6.845-6.919c-1.651-2.962-2.476-6.36-2.476-10.196 0-3.884.802-7.331 2.402-10.342s3.837-5.365 6.701-7.064c2.866-1.748 6.143-2.622 9.832-2.622 3.398 0 6.385.801 8.957 2.403 2.623 1.554 4.637 3.714 6.046 6.482 1.408 2.719 2.064 5.875 1.965 9.468l-.072 2.549h-30.151c.242 4.127 1.652 7.404 4.225 9.832s5.995 3.641 10.268 3.641c1.846 0 3.642-.291 5.39-.874 1.796-.631 3.763-1.845 5.898-3.641l2.841 4.006c-1.699 1.651-3.861 3.034-6.482 4.151-2.621 1.068-5.39 1.602-8.303 1.602zm-.654-34.375c-3.496 0-6.386.947-8.668 2.84-2.281 1.845-3.713 4.564-4.295 8.157h24.397v-.437c-.099-1.748-.607-3.423-1.531-5.025-.921-1.651-2.232-2.986-3.931-4.006-1.652-1.02-3.641-1.529-5.972-1.529zm37.394 34.375c-3.302 0-6.238-.583-8.811-1.748-2.525-1.214-4.565-2.84-6.119-4.879l3.934-3.423c2.767 3.447 6.579 5.171 11.434 5.171 2.329 0 4.224-.51 5.68-1.529 1.504-1.068 2.257-2.525 2.257-4.37 0-1.554-.679-2.84-2.039-3.86-.631-.485-1.528-.947-2.695-1.384s-2.573-.898-4.223-1.384c-2.72-.728-4.977-1.505-6.773-2.33s-3.205-1.772-4.223-2.84c-1.457-1.651-2.185-3.714-2.185-6.19 0-2.088.557-3.933 1.674-5.535 1.165-1.651 2.743-2.937 4.734-3.86 2.039-.971 4.321-1.457 6.845-1.457 2.72 0 5.341.583 7.867 1.748 2.572 1.117 4.66 2.573 6.262 4.37l-3.423 3.714c-1.457-1.505-3.082-2.719-4.88-3.641-1.747-.922-3.592-1.384-5.534-1.384-2.378 0-4.298.534-5.754 1.602-1.407 1.068-2.111 2.476-2.111 4.224 0 1.408.558 2.573 1.675 3.496.679.534 1.627 1.044 2.841 1.529 1.261.437 2.814.898 4.659 1.384 2.089.583 3.885 1.189 5.39 1.821 1.504.583 2.743 1.287 3.714 2.112 2.428 1.845 3.641 4.37 3.641 7.574 0 2.136-.607 4.054-1.82 5.753-1.214 1.651-2.864 2.962-4.952 3.933-2.088.922-4.442 1.384-7.065 1.384z"/></g><defs><clipPath id="A"><path fill="#fff" transform="translate(.429)" d="M0 0h403.966v55H0z"/></clipPath></defs></svg>