<svg xmlns="http://www.w3.org/2000/svg" width="166" height="61" fill="none" xmlns:v="https://vecta.io/nano"><g clip-path="url(#A)" fill="#fff"><path d="M68.739.5l-.041 2.732v9.714.859a3.37 3.37 0 0 0 .429-.31c2.531-2.602 5.614-3.119 8.959-2.159 3.273.934 4.894 3.41 5.555 6.593.182.893.274 1.803.274 2.714l.014 15.255c0 .202-.021.402-.033.65h-8.758l-.036-.815-.012-12.587a8.04 8.04 0 0 0-.226-1.96c-.325-1.261-1.203-1.989-2.403-2.111-1.351-.137-2.515.274-3.093 1.528a6.9 6.9 0 0 0-.605 2.694l-.029 12.381v.865l-.643.049c-2.489 0-4.979-.015-7.468.016-.588.007-.72-.197-.719-.746l.012-34.752c0-.203.036-.411.055-.609L68.739.5zm96.483 0l-.974 2.476-8.022 19.408c-.231.56-.512.731-1.097.724l-8.838-.015h-.85L154.813.5h10.409zM48.373 13.782l-.007-1.697c-.029-.459.16-.584.597-.582h7.26c.542 0 .697.155.695.695l-.011 15.595.011 8.072c0 .549-.121.753-.713.745a257.11 257.11 0 0 0-7.124 0c-.586.007-.765-.184-.716-.741.04-.446.008-.9.008-1.387-.137.03-.214.025-.25.062-2.554 2.694-5.747 3.181-9.147 2.374-4.891-1.159-7.763-4.497-8.893-9.242-1.271-5.335-.097-10.14 4.06-13.907 2.897-2.625 6.371-3.447 10.2-2.458 1.464.374 2.195.853 4.03 2.469zm-4.964 15.477a5.17 5.17 0 0 0 2.007-.383 5.19 5.19 0 0 0 1.703-1.128 5.2 5.2 0 0 0 1.136-1.698c.263-.636.395-1.317.392-2.005s-.144-1.368-.413-2.001a5.18 5.18 0 0 0-1.154-1.686c-.493-.48-1.076-.857-1.715-1.109a5.19 5.19 0 0 0-2.011-.361c-2.957.021-5.212 2.284-5.201 5.212s2.293 5.169 5.257 5.159zM7.848 45.912l.306-.797 3.234-7.62a1.56 1.56 0 0 0 0-1.355L1.341 12.461l-.358-.905.791-.043 8.017-.014c.549 0 .797.152.996.669l5.123 13.129.376.922.379-.837 5.212-13.24c.188-.48.429-.647.946-.643l7.878.012h.72l-.274.757-13.671 32.989c-.207.502-.455.673-1 .668l-8.629-.014zm90.575-8.675c-4.644-.188-9.005-2.373-11.32-7.497-2.274-5.03-1.768-9.985 1.865-14.23 3.78-4.414 8.793-5.517 14.264-4.006 5.269 1.454 8.383 5.097 9.278 10.491 1.353 8.22-4.775 15.238-14.088 15.242zm.837-8.081c2.872 0 5.038-2.195 5.028-5.098-.008-2.864-2.168-5.053-5.001-5.075-2.856-.018-5.061 2.195-5.065 5.075s2.164 5.098 5.038 5.098zm27.545 8.077c-4.475-.173-8.726-2.245-11.129-7.093-2.352-4.747-2.016-9.497 1.047-13.871s8.761-6.269 14.342-4.954c5.212 1.226 8.947 5.252 9.826 10.575 1.365 8.29-4.748 15.367-14.086 15.343zm.86-8.079c2.871-.011 5.031-2.216 5.012-5.117-.018-2.86-2.195-5.046-5.021-5.05-2.856 0-5.055 2.212-5.053 5.094s2.193 5.084 5.062 5.074zm-21.669 29.529a1.43 1.43 0 0 0-.317.167c-2.403 2.577-6.459 1.826-8.532-.464-2.946-3.253-2.389-9.143 1.132-11.638 2.129-1.509 5.68-1.472 7.306.433a1.61 1.61 0 0 0 .36.228 1.6 1.6 0 0 0 .105-.292c.12-1.038.118-1.04 1.191-1.04h3.017c.489-.011.696.145.693.663v12.654c0 .525-.23.665-.706.657-1.098-.018-2.195-.038-3.292.008-.668.028-1.004-.154-.896-.871a2.27 2.27 0 0 0-.061-.506zm.204-5.6a3.02 3.02 0 0 0-.23-1.165 3.01 3.01 0 0 0-.662-.986 3.03 3.03 0 0 0-.991-.654 3.02 3.02 0 0 0-1.167-.221c-.796.004-1.558.316-2.127.871a3.06 3.06 0 0 0-.924 2.105c-.025 1.634 1.379 3.017 3.071 3.026a3.02 3.02 0 0 0 3.03-2.975zm-21.387-5.464c.157-.122.306-.253.447-.392 1.284-1.529 2.959-1.798 4.785-1.404s2.849 1.646 3.292 3.385a7.89 7.89 0 0 1 .203 1.894l.022 8.072c0 .636-.169.907-.846.879a48.77 48.77 0 0 0-3.356 0c-.575.015-.75-.209-.745-.763v-6.43c0-.433-.046-.865-.137-1.288-.085-.373-.284-.709-.571-.961s-.646-.407-1.026-.443a1.81 1.81 0 0 0-1.091.243c-.329.194-.588.487-.741.837-.182.465-.28.958-.289 1.457v6.567c.008.608-.199.798-.79.78-1.186-.034-2.376-.022-3.566 0-.459 0-.652-.149-.65-.635V46.695c0-.501.214-.621.66-.614h3.631c.534-.012.76.167.706.71-.021.219.038.458.064.828zm33.586-.015a3.16 3.16 0 0 0 .411-.328c1.42-1.702 3.258-1.933 5.222-1.334s2.931 2.152 3.02 4.072l.087 9.437c0 .395-.166.587-.572.586-1.257-.007-2.513-.014-3.768 0-.516.007-.594-.274-.591-.695v-6.567a5.44 5.44 0 0 0-.147-1.284 1.81 1.81 0 0 0-.596-.936 1.82 1.82 0 0 0-1.03-.415c-.378-.027-.755.064-1.078.262a1.82 1.82 0 0 0-.725.841 4.88 4.88 0 0 0-.294 1.595v6.361c.013.672-.22.87-.866.846l-3.494-.007c-.467.007-.643-.167-.642-.642V46.672c0-.44.158-.612.6-.606h3.703c.549-.014.741.197.697.723a5.07 5.07 0 0 0 .063.816zm36.554 9.522c-.949 1.569-2.249 2.469-3.853 2.953a9.04 9.04 0 0 1-5.393.019c-2.762-.859-4.286-2.779-4.781-5.597-.531-3.018.72-6.145 3.237-7.666 2.615-1.579 5.365-1.665 8.002-.137s3.42 4.061 3.348 6.959c-.015.569-.339.591-.767.59a1407.68 1407.68 0 0 0-8.22 0c-.892 0-1.03.252-.593 1.063.788 1.465 2.999 1.826 4.339.656.411-.363.736-.383 1.21-.187l3.471 1.347zm-6.791-5.587h1.986c.523 0 .616-.252.452-.708-.319-.885-1.299-1.509-2.403-1.49s-2.066.632-2.383 1.528c-.156.438-.044.664.432.667l1.916.003zm-77.64-8.037l-.946-.17c-1.463-.208-2.518.571-2.695 1.949-.07.549.082.823.678.801l2.123-.01c.49-.018.705.137.686.661v2.668c.01.433-.137.623-.59.605-.661-.026-1.325-.007-1.986 0-.92 0-.946.023-.948.971v8.003c0 1.064 0 1.066-1.049 1.067s-2.057-.026-3.082.01c-.587.019-.8-.166-.793-.778l.011-8.275c0-.993 0-.993-.974-.998-.935 0-.937 0-.938-.929l-.007-2.332c-.022-.506.166-.721.671-.669.137.014.274-.01.411 0 .598.055.843-.167.861-.812a8.91 8.91 0 0 1 .328-2.218c.654-2.267 2.613-3.769 5.082-3.894.842-.019 1.684.037 2.516.169.233.032.609.313.617.492l.025 3.688zm69.061 11.976l-.019 3.917c0 .18-.248.435-.44.514-4.003 1.669-9.555-.394-10.195-5.614-.549-4.437 1.813-7.776 6.065-8.516 1.337-.233 2.687-.169 3.977.329.228.088.568.307.575.476.047 1.332.026 2.666.026 3.953-.901-.149-1.719-.388-2.539-.401-1.887-.03-3.246 1.321-3.164 3.018.086 1.765 1.616 3.05 3.489 2.85.73-.074 1.442-.335 2.225-.527zm8.56-30.113c3.247-.008 5.73 2.45 5.747 5.692.014.783-.129 1.561-.42 2.288a5.86 5.86 0 0 1-1.276 1.945c-.55.557-1.207.998-1.931 1.297a5.87 5.87 0 0 1-2.283.445c-3.225.01-5.749-2.485-5.761-5.695a5.92 5.92 0 0 1 .433-2.284 5.9 5.9 0 0 1 3.21-3.236 5.91 5.91 0 0 1 2.281-.451zM77.354 53.059l.012 6.216c.008.61-.213.793-.797.776l-3.488-.007c-.459 0-.661-.173-.66-.643V46.698c0-.484.221-.63.671-.624h3.557c.527-.012.723.16.716.705l-.011 6.281zm.301-11.321a2.75 2.75 0 0 1-.807 1.97 2.75 2.75 0 0 1-.904.601 2.76 2.76 0 0 1-1.066.204 2.76 2.76 0 0 1-1.954-.797c-.52-.514-.814-1.214-.818-1.945a2.76 2.76 0 0 1 .797-1.954c.514-.52 1.214-.814 1.945-.818.365-.008.728.056 1.068.19a2.74 2.74 0 0 1 .911.589 2.75 2.75 0 0 1 .827 1.959z"/></g><defs><clipPath id="A"><path fill="#fff" transform="translate(.983 .5)" d="M0 0h164.239v60H0z"/></clipPath></defs></svg>