<svg xmlns="http://www.w3.org/2000/svg" width="230" height="61" fill="none" xmlns:v="https://vecta.io/nano"><g clip-path="url(#A)"><path d="M22.819 6.091h5.018c3.056-.45 6.177-.054 9.024 1.145a15.98 15.98 0 0 1 7.219 9.64c.748 2.113.748 2.113 2.553 1.365h1.409V1.512H.809v2.949h1.937c.842-.006 1.674.177 2.436.535s1.434.882 1.966 1.534c1.805 2.905 2.113 6.163 2.113 23.111 0 18.004-.396 22.406-2.113 24.652-.424.577-.973 1.051-1.605 1.386s-1.333.524-2.048.55c-2.685.484-2.685.44-2.685 1.629a1.76 1.76 0 0 0 0 1.232h29.802a2.77 2.77 0 0 0 0-2.509 15.17 15.17 0 0 0-2.201-.44 14.7 14.7 0 0 1-2.377-.484c-1.114-.813-1.996-1.903-2.559-3.161s-.789-2.642-.654-4.014c-.44-2.905-.66-8.232-.66-12.634v-3.478h1.761c2.194-.067 4.386.17 6.515.704 1.02.63 1.888 1.478 2.542 2.482s1.079 2.141 1.243 3.328l.396 1.365h2.685V20.75h-2.465l-.396 1.893c-.167 1.214-.616 2.373-1.312 3.382s-1.619 1.841-2.694 2.429a7.35 7.35 0 0 1-3.213.22h-5.062v-4.754c0-4.93.264-15.319.44-16.948l.22-.88zm206.016 34.908a15.98 15.98 0 0 0-9.112-6.911c-2.903-.907-5.586-2.406-7.88-4.402a4.41 4.41 0 0 1-1.276-3.918c.003-1.388.557-2.718 1.54-3.698a5.33 5.33 0 0 1 5.283-1.453c1.924.548 3.664 1.607 5.036 3.064s2.324 3.258 2.755 5.212c.705 1.981.793 1.981 2.069 1.453l.793-.308V19.077l-.573-.264c-4.333-1.522-8.931-2.151-13.514-1.849-3.947.1-7.715 1.67-10.565 4.402-1.292 1.21-2.305 2.688-2.967 4.331a12.16 12.16 0 0 0-.863 5.178 10.43 10.43 0 0 0 2.994 7.219c2.095 2.06 4.665 3.572 7.483 4.402 6.823 2.685 8.804 4.402 8.804 7.527.03 1.318-.39 2.607-1.19 3.655s-1.933 1.793-3.212 2.112a10.87 10.87 0 0 1-4.666 0c-2.012-.781-3.809-2.031-5.241-3.647a13.56 13.56 0 0 1-2.991-5.641l-.572-1.409h-.792a3.52 3.52 0 0 0-1.101.264h-.44v12.502h.748a45.39 45.39 0 0 0 9.157 2.025h4.402a17.25 17.25 0 0 0 5.678-.528 13.69 13.69 0 0 0 6.367-3.019c1.823-1.544 3.209-3.539 4.022-5.785.525-1.255.795-2.602.793-3.962.173-1.916-.161-3.844-.969-5.591zM187.368 18.24c-2.638-1.108-5.48-1.645-8.341-1.577a20.29 20.29 0 0 0-8.255 1.973c-2.427 1.187-4.578 2.87-6.315 4.94a19.33 19.33 0 0 0-3.766 7.078 23.51 23.51 0 0 0-1.188 8.804c-.032 1.623.101 3.246.396 4.842.711 3.926 2.606 7.54 5.431 10.357s6.445 4.702 10.372 5.402a30.82 30.82 0 0 0 7.704 0c2.654-.468 5.194-1.439 7.483-2.861 1.894-1.062 3.497-2.574 4.667-4.402-.076-.287-.208-.556-.389-.79s-.409-.43-.668-.574c-.502.182-.977.434-1.409.748a12.59 12.59 0 0 1-7.395 2.069c-1.739.118-3.483-.153-5.105-.793a11.75 11.75 0 0 1-4.271-2.905 10.52 10.52 0 0 1-2.246-2.993c-1.367-2.737-2.105-5.745-2.157-8.804v-1.717h24.388v-.881a21.55 21.55 0 0 0 0-2.641c-.009-3.108-.84-6.159-2.41-8.842s-3.821-4.902-6.526-6.433zm-12.282 15.231h-3.081v-2.597c1.012-6.647 3.521-10.609 6.603-10.609s4.402 3.918 4.974 11.093v2.025h-2.641l-5.855.088zm-63.302-16.684c-1.521-.059-3.033.259-4.402.924a14.75 14.75 0 0 0-6.823 6.823l-.572 1.056v-8.804h-.22c-.528 0-16.816 3.258-17.344 3.478s-.352.264-.352 1.056 0 .924.352.968l1.717.352a3.17 3.17 0 0 1 2.465 1.277c1.101 1.453 1.321 4.006 1.321 14.879a85.01 85.01 0 0 1-.616 14.659 3.61 3.61 0 0 1-3.037 2.861l-1.497.308h-.572v1.233a1.76 1.76 0 0 0 0 1.277h24.607v-1.277c.085-.421.085-.855 0-1.277-1.481-.058-2.955-.249-4.402-.572a4.4 4.4 0 0 1-2.333-4.402c-.352-2.553-.528-10.037-.44-15.759s0-6.075.484-6.471c1.473-1.129 3.296-1.706 5.15-1.629a11.49 11.49 0 0 1 5.019 1.277c.538.299 1.116.521 1.717.66l4.402-11.137a5.2 5.2 0 0 0-4.623-1.761zM82.115 35.276c-.154-3.146-1.057-6.209-2.634-8.935s-3.783-5.035-6.434-6.736a22.89 22.89 0 0 0-20.602-.572 19.9 19.9 0 0 0-9.64 11.445c-1.654 5.513-1.654 11.391 0 16.904.867 3.013 2.489 5.755 4.71 7.968 2.767 2.7 6.335 4.43 10.169 4.93a44.37 44.37 0 0 0 7.395 0c.906-.138 1.802-.329 2.685-.572A19.59 19.59 0 0 0 81.806 44.08c.44-2.913.543-5.867.308-8.804zm-18.313 22.01c-4.402 1.321-7.704-2.949-8.804-11.93-.404-4.702-.404-9.429 0-14.131.88-7.219 3.125-10.873 6.603-10.873.702-.044 1.404.082 2.047.365a4.4 4.4 0 0 1 1.651 1.264c2.949 2.949 4.402 8.804 4.402 17.608a32.62 32.62 0 0 1-2.289 14.615 6.69 6.69 0 0 1-3.61 2.861v.22zm79.237-39.618c-1.242-.16-2.5-.16-3.742 0a16.64 16.64 0 0 0-6.911 1.497l-1.365.572v-9.552c.239-3.224.239-6.461 0-9.684-.528 0-17.344 3.214-17.608 3.346-.13.325-.13.687 0 1.012 0 .924 0 .88 1.981 1.321a5.68 5.68 0 0 1 1.585.616 5.42 5.42 0 0 1 1.629 3.037c.501 3.35.663 6.742.484 10.125v38.65l1.188.264c1.761.396 6.736 1.233 8.364 1.409a61.63 61.63 0 0 0 9.773 0 19.94 19.94 0 0 0 9.952-3.895c2.901-2.18 5.153-5.11 6.512-8.474a30.32 30.32 0 0 0 1.672-6.691c.262-3.098.159-6.215-.308-9.288a16.95 16.95 0 0 0-4.355-9.213c-2.362-2.551-5.452-4.314-8.851-5.05zm-11.533 38.87l-.353-27.557v-6.031l1.277-.308c.861-.123 1.736-.123 2.597 0 .953-.097 1.911.12 2.73.616a13.21 13.21 0 0 1 3.992 4.366c.984 1.738 1.56 3.677 1.686 5.671.321 3.206.321 6.435 0 9.641a21.17 21.17 0 0 1-5.106 12.634 6.12 6.12 0 0 1-3.126 1.585 7.83 7.83 0 0 1-2.685 0c-.836 0-.836-.264-.836-.616h-.176z" fill="#fff"/></g><defs><clipPath id="A"><path fill="#fff" transform="translate(.765 .5)" d="M0 0h229.083v60H0z"/></clipPath></defs></svg>