<svg xmlns="http://www.w3.org/2000/svg" width="168" height="55" fill="none" xmlns:v="https://vecta.io/nano"><g clip-path="url(#A)"><g fill="#fff"><path d="M23.5 54.982c10.201 0 18.471-8.27 18.471-18.471S33.701 18.04 23.5 18.04 5.029 26.31 5.029 36.511s8.27 18.471 18.471 18.471z" fill-opacity=".61"/><path d="M15.435 29.223c8.07 0 14.612-6.542 14.612-14.611S23.505 0 15.435 0 .824 6.542.824 14.612s6.542 14.612 14.612 14.612zM37.904 0h11.285l7.861 25.14L64.813 0h10.956L62.796 34.933h-11.7L37.904 0zM77.77 0h10.817v34.933H77.77V0zm16.681 0h10.073l13.152 19.325V0h10.166v34.933h-10.166L104.601 15.75v19.183H94.435L94.451 0zm61.362 0h10.769v20.813c.012 1.988-.314 3.965-.964 5.844a12.73 12.73 0 0 1-3.025 4.811c-1.215 1.268-2.691 2.255-4.328 2.891a21.7 21.7 0 0 1-7.551 1.167 48.08 48.08 0 0 1-5.568-.354 14.57 14.57 0 0 1-5.038-1.419 12.62 12.62 0 0 1-3.705-3.014 11.07 11.07 0 0 1-2.298-4.022 20.9 20.9 0 0 1-1-5.905V0h10.769v21.309c0 1.898.528 3.389 1.585 4.473s2.523 1.62 4.397 1.606c1.86 0 3.317-.527 4.371-1.582s1.584-2.546 1.586-4.473V0z"/></g><g opacity=".61" fill="#fff"><path opacity=".61" d="M52.703 54.766V41.481h9.122v2.245h-6.442v3.144h5.543v2.245h-5.543v5.645l-2.68.008zm9.589-4.945a5.19 5.19 0 0 1 .626-2.44 4.27 4.27 0 0 1 1.753-1.834c.785-.423 1.666-.639 2.558-.626a4.8 4.8 0 0 1 3.579 1.419 4.88 4.88 0 0 1 1.395 3.583 4.97 4.97 0 0 1-.336 1.951 4.98 4.98 0 0 1-1.071 1.665 4.75 4.75 0 0 1-1.622 1.09c-.61.247-1.266.365-1.924.345a5.57 5.57 0 0 1-2.521-.598 4.07 4.07 0 0 1-1.826-1.753 5.8 5.8 0 0 1-.61-2.802zm2.607.134c-.054.79.19 1.572.683 2.192.208.239.465.431.753.562a2.22 2.22 0 0 0 2.589-.562c.49-.628.73-1.414.675-2.208a3.17 3.17 0 0 0-.675-2.176 2.22 2.22 0 0 0-1.671-.761 2.22 2.22 0 0 0-.918.199c-.288.131-.545.323-.753.562a3.18 3.18 0 0 0-.683 2.192zm14.53 4.81v-1.44a3.73 3.73 0 0 1-1.383 1.22 3.85 3.85 0 0 1-1.806.443 3.57 3.57 0 0 1-1.74-.407 2.54 2.54 0 0 1-1.114-1.196c-.256-.68-.372-1.405-.342-2.131V45.14h2.546v4.421a12.33 12.33 0 0 0 .138 2.485c.085.292.265.547.512.724a1.57 1.57 0 0 0 .944.268 2.03 2.03 0 0 0 1.167-.358 1.86 1.86 0 0 0 .707-.891 10.36 10.36 0 0 0 .187-2.595V45.14h2.546v9.618l-2.363.008zm12.635.001h-2.546v-4.909a7.54 7.54 0 0 0-.163-2.033 1.43 1.43 0 0 0-.528-.712 1.55 1.55 0 0 0-.887-.252 2.03 2.03 0 0 0-1.183.362 1.84 1.84 0 0 0-.72.959 8.27 8.27 0 0 0-.195 2.212v4.355h-2.546v-9.61h2.363v1.411c.359-.506.835-.919 1.387-1.202a3.86 3.86 0 0 1 1.785-.425 3.79 3.79 0 0 1 1.537.305c.413.163.777.429 1.057.773a2.85 2.85 0 0 1 .496 1.069 7.91 7.91 0 0 1 .142 1.712v5.982zm10.289 0H99.99v-1.415c-.358.514-.835.932-1.391 1.22a3.58 3.58 0 0 1-1.627.407 3.66 3.66 0 0 1-2.847-1.334c-.789-.889-1.183-2.132-1.183-3.729 0-1.627.386-2.847 1.151-3.717a3.76 3.76 0 0 1 2.908-1.273c.536.002 1.064.124 1.547.356s.907.569 1.243.986v-4.786h2.545l.017 13.286zm-6.776-5.018a4.4 4.4 0 0 0 .427 2.228 1.93 1.93 0 0 0 .722.737 1.92 1.92 0 0 0 .999.259 1.87 1.87 0 0 0 1.496-.748 3.44 3.44 0 0 0 .614-2.232c0-1.106-.199-1.899-.598-2.387a1.96 1.96 0 0 0-.68-.534c-.263-.125-.551-.19-.843-.19s-.58.065-.843.19-.495.308-.68.534c-.451.62-.668 1.379-.614 2.143zm10.073-1.667l-2.31-.407c.189-.825.663-1.556 1.338-2.066.635-.447 1.577-.671 2.827-.671.865-.046 1.73.092 2.537.407a2.54 2.54 0 0 1 1.172 1.025c.227.407.341 1.171.341 2.277l-.028 2.973a10.33 10.33 0 0 0 .122 1.867 5.6 5.6 0 0 0 .455 1.293h-2.517l-.244-.752-.09-.301a4.59 4.59 0 0 1-1.394.952 4.01 4.01 0 0 1-1.586.317c-.857.048-1.697-.245-2.339-.813a2.66 2.66 0 0 1-.649-.924c-.148-.351-.219-.729-.209-1.109a2.73 2.73 0 0 1 .407-1.456c.261-.424.639-.763 1.09-.976a8.52 8.52 0 0 1 2.033-.594 13.65 13.65 0 0 0 2.473-.626v-.252c.018-.19-.004-.382-.067-.562a1.32 1.32 0 0 0-.295-.483 2.18 2.18 0 0 0-1.367-.313 1.81 1.81 0 0 0-1.061.268 1.84 1.84 0 0 0-.639.927zm3.404 2.066c-.509.163-1.026.298-1.549.407a4.64 4.64 0 0 0-1.387.443 1.07 1.07 0 0 0-.363.384 1.06 1.06 0 0 0-.133.511c-.001.174.035.346.105.505a1.24 1.24 0 0 0 .302.419 1.38 1.38 0 0 0 .464.307 1.37 1.37 0 0 0 .548.099c.475-.005.936-.163 1.314-.451a1.6 1.6 0 0 0 .61-.842c.081-.401.114-.811.097-1.22l-.008-.561z"/><path opacity=".61" d="M117.358 45.141v2.033h-1.736v3.876a9.8 9.8 0 0 0 .049 1.37c.034.131.115.245.228.321a.7.7 0 0 0 .406.126 3.3 3.3 0 0 0 1.025-.244l.216 1.976a5.07 5.07 0 0 1-2.009.378 3.18 3.18 0 0 1-1.241-.232 1.74 1.74 0 0 1-.813-.598 2.29 2.29 0 0 1-.358-.988 11.94 11.94 0 0 1-.081-1.793v-4.193h-1.171V45.14h1.191v-1.91l2.554-1.484v3.396h1.74zm.656-1.298V41.48h2.545v2.355l-2.545.008zm0 10.923V45.14h2.545v9.618l-2.545.008zm3.452-4.944a5.25 5.25 0 0 1 .622-2.44 4.31 4.31 0 0 1 1.773-1.81 5.21 5.21 0 0 1 2.558-.626c.663-.023 1.323.091 1.938.335a4.8 4.8 0 0 1 1.641 1.084 5.33 5.33 0 0 1 0 7.198 4.74 4.74 0 0 1-3.546 1.435 5.57 5.57 0 0 1-2.521-.598 4.09 4.09 0 0 1-1.826-1.753 5.85 5.85 0 0 1-.639-2.826zm2.607.134c-.053.789.189 1.571.679 2.192a2.23 2.23 0 0 0 1.674.761 2.22 2.22 0 0 0 1.673-.761c.487-.629.728-1.414.675-2.208a3.19 3.19 0 0 0-.675-2.176 2.22 2.22 0 0 0-1.673-.761 2.23 2.23 0 0 0-1.674.761c-.489.621-.731 1.402-.679 2.192zm16.946 4.809h-2.546v-4.908a7.55 7.55 0 0 0-.163-2.033 1.43 1.43 0 0 0-.528-.712c-.262-.172-.57-.26-.883-.252a2.03 2.03 0 0 0-1.187.362c-.341.23-.594.568-.72.96-.164.725-.23 1.469-.195 2.212v4.355h-2.546V45.14h2.367v1.411a3.86 3.86 0 0 1 1.387-1.201c.552-.283 1.164-.429 1.785-.425.529-.006 1.054.097 1.541.305.411.164.773.43 1.053.773a2.78 2.78 0 0 1 .496 1.07 7.87 7.87 0 0 1 .143 1.712l-.004 5.982z"/></g></g><defs><clipPath id="A"><path fill="#fff" transform="translate(.824)" d="M0 0h166.833v55H0z"/></clipPath></defs></svg>