<svg xmlns="http://www.w3.org/2000/svg" width="332" height="45" fill="none" xmlns:v="https://vecta.io/nano"><g clip-path="url(#A)"><path d="M48.303 44.889h31.764v-8.381H57.898V26.25h18.365v-8.381H57.898V8.381h22.28V0H48.303v44.889zm69.98-16.654L97.494 0H83.155l4.466 5.681V45h9.596V15.551l21.508 29.338h9.152V0h-9.595v28.235zM33.8 21.783c4.192-.829 7.721-4.744 7.721-10.258C41.465 5.57 37.165.004 28.507.004H.657l4.3 5.51v39.375h24.486c8.658 0 13.125-5.404 13.125-12.186-.111-5.517-3.915-10.26-8.769-10.92zM14.615 8.437h12.022c3.255 0 5.295 1.877 5.295 4.743 0 2.811-2.04 4.741-5.295 4.741H14.615V8.437zm12.458 28.12H14.666V26.25h12.407c3.638 0 5.679 2.315 5.679 5.129 0 3.252-2.149 5.129-5.678 5.182v-.005zm241.273-8.326h5.019v5.293c-2.597 2.138-5.845 3.325-9.208 3.365-7.996 0-13.677-6.066-13.677-14.339 0-8.215 5.681-14.337 13.677-14.337a12.2 12.2 0 0 1 10.256 5.678l7.555-4.19C278.709 4.577 273.023 0 263.98 0c-12.684 0-23.264 8.769-23.264 22.444s10.413 22.446 23.264 22.446c3.464.051 6.899-.648 10.069-2.048s5.999-3.468 8.295-6.063V20.184h-20.46l6.462 8.047zm-43.234 0L204.266 0h-14.348l4.467 5.681V45h9.595V15.551l21.509 29.338h9.208V0h-9.605v28.235l.02-.004zM314.157 0h-18.528l4.466 5.681-.826 2.149L284.934 45h10.81l2.811-7.555h19.369L320.735 45h10.81L314.157 0zm-13.071 28.953l7.003-19.357 7.005 19.357h-14.008zM174.799 0h9.596v45h-9.596V0zm-7.712 7.721V0h-33.803v8.381h21.23l-21.23 28.787v7.721h34.191v-8.381h-21.784l21.396-28.787z" fill="#fff"/></g><defs><clipPath id="A"><path fill="#fff" transform="translate(.657)" d="M0 0h330.877v45H0z"/></clipPath></defs></svg>