<svg width="83" height="129" viewBox="0 0 83 129" fill="none" xmlns="http://www.w3.org/2000/svg">
<path fill-rule="evenodd" clip-rule="evenodd" d="M61.4819 94.6146C61.6142 91.036 61.0641 86.9621 60.139 82.8183L67.1459 81.2754C68.1957 85.9679 68.8153 90.646 68.6573 94.8667C68.2709 105.11 63.6225 110.829 53.492 113.334C48.8522 114.485 43.9438 114.711 40.2815 114.711V107.541C43.5528 107.541 47.89 107.348 51.7731 106.387C58.7361 104.664 61.2194 101.647 61.4811 94.6137M41.5047 0C27.4283 20.4746 13.7212 42.8658 5.5833 66.3598C1.3528 78.5758 -0.99915 90.6467 0.408661 100.901C3.41896 122.823 22.0136 129 41.4808 129C60.9577 129 79.5657 122.836 82.5894 100.899C84 90.6407 81.6539 78.5688 77.4233 66.355C69.283 42.8656 55.5767 20.4703 41.5044 0H41.5047Z" fill="white"/>
</svg>
