<svg width="173" height="246" viewBox="0 0 173 246" fill="none" xmlns="http://www.w3.org/2000/svg">
<path d="M111.88 245.61C111.338 245.605 110.813 245.425 110.382 245.096C109.951 244.768 109.638 244.309 109.49 243.788C109.341 243.267 109.365 242.712 109.558 242.206C109.751 241.7 110.102 241.27 110.56 240.98C117.289 236.826 122.84 231.015 126.681 224.102C130.522 217.19 132.526 209.408 132.5 201.5C132.5 182.59 123.95 171.44 114.9 159.63C105.47 147.34 95.75 134.63 94.28 112.63C61.98 141.56 70.94 187.5 71.04 187.98C71.1142 188.343 71.1066 188.718 71.0178 189.078C70.9291 189.438 70.7614 189.774 70.5268 190.061C70.2923 190.349 69.9969 190.58 69.6619 190.739C69.3269 190.898 68.9608 190.98 68.59 190.98C68.3319 190.98 68.0755 190.94 67.83 190.86C63.8208 189.338 60.2487 186.852 57.43 183.62C54.02 179.82 50.3 173.62 49.43 164.01C42.99 176.28 39.62 189.09 39.62 201.49C39.6034 209.328 41.5775 217.043 45.3573 223.909C49.137 230.776 54.5986 236.571 61.23 240.75C61.6867 241.04 62.037 241.471 62.2281 241.977C62.4192 242.483 62.4408 243.038 62.2898 243.558C62.1387 244.077 61.8231 244.534 61.3904 244.859C60.9577 245.184 60.4312 245.36 59.89 245.36C59.6213 245.361 59.3543 245.317 59.1 245.23L57.23 244.58C40.4915 238.569 26.0144 227.541 15.7727 213.001C5.53098 198.46 0.023071 181.115 0 163.33C0 129.25 15.9 108.93 31.28 89.33C48.32 67.5 65.93 45.03 64.78 2.57C64.7706 2.23585 64.8284 1.90322 64.9498 1.59178C65.0713 1.28034 65.2539 0.996418 65.487 0.756806C65.7201 0.517195 65.9989 0.326761 66.3068 0.19677C66.6148 0.0667783 66.9457 -0.000130872 67.28 1.92176e-07C67.7082 0.00369554 68.1283 0.117326 68.5 0.33C105.9 21.67 121.1 50.74 127.27 71.33C130.688 82.6028 132.314 94.3425 132.09 106.12C135.321 103.261 137.89 99.7324 139.617 95.7791C141.344 91.8257 142.188 87.5431 142.09 83.23C142.088 82.6857 142.265 82.1558 142.594 81.7221C142.923 81.2883 143.385 80.9749 143.91 80.83C144.13 80.7619 144.36 80.7282 144.59 80.73C145.017 80.7318 145.436 80.8419 145.809 81.05C146.181 81.2582 146.495 81.5575 146.72 81.92C163.6 109.38 172.52 137.52 172.52 163.3C172.495 181.078 166.991 198.416 156.757 212.953C146.524 227.491 132.058 238.52 115.33 244.54C114.44 244.86 113.54 245.17 112.63 245.46C112.389 245.548 112.136 245.599 111.88 245.61Z" fill="white"/>
</svg>
