<svg xmlns="http://www.w3.org/2000/svg" width="244" height="61" fill="none" xmlns:v="https://vecta.io/nano"><g clip-path="url(#A)"><g fill-rule="evenodd" fill="#fff"><path d="M50.276 9.759l.308 1.925a35.36 35.36 0 0 1 .308 5.351c.002 3.955-.463 7.896-1.386 11.742a45.43 45.43 0 0 1-6.352 14.629c-3.426 5.082-8.393 10.048-15.592 14.129l-.886.501-.885-.501c-7.199-4.004-12.166-9.009-15.592-14.129-2.986-4.452-5.138-9.409-6.352-14.629A50.22 50.22 0 0 1 2.46 17.054a41.58 41.58 0 0 1 .308-5.351l.269-1.925a.94.94 0 0 0 0-.462c-.024-.156-.09-.303-.193-.423-.082-.121-.187-.226-.308-.308a1.61 1.61 0 0 0-.385-.154.94.94 0 0 0-.462 0c-.151.041-.294.106-.423.193-.121.082-.226.187-.308.308a2.17 2.17 0 0 0-.154.462l-.308 1.925a47.31 47.31 0 0 0-.346 5.736 53.13 53.13 0 0 0 1.463 12.319 48.81 48.81 0 0 0 2.656 8.008 45.91 45.91 0 0 0 4.042 7.392 46.37 46.37 0 0 0 16.4 14.822l1.424.809c.183.076.379.115.578.115a1.5 1.5 0 0 0 .577-.115l1.424-.809c7.507-4.196 12.781-9.471 16.4-14.822a46.53 46.53 0 0 0 6.699-15.399 53.07 53.07 0 0 0 1.424-12.319 48.42 48.42 0 0 0-.346-5.775l-.308-1.925a2.17 2.17 0 0 0-.154-.462c-.082-.121-.187-.226-.308-.308a1.42 1.42 0 0 0-.423-.192.94.94 0 0 0-.462 0 2.17 2.17 0 0 0-.462.154c-.121.082-.226.187-.308.308-.087.13-.152.273-.193.423v.481zM9.506 8.45l17.247-5.428 17.594 5.563a1.84 1.84 0 0 0 .462.038 1.03 1.03 0 0 0 .462-.115.98.98 0 0 0 .385-.308.62.62 0 0 0 .192-.423 1.88 1.88 0 0 0 .038-.462 1.03 1.03 0 0 0-.115-.462 1.36 1.36 0 0 0-.27-.385.62.62 0 0 0-.423-.192L27.099.558a1.07 1.07 0 0 0-.693 0L8.851 6.101c-.148.048-.29.113-.423.192a.88.88 0 0 0-.269.385 1.02 1.02 0 0 0-.115.462c-.006.155.007.31.039.462.041.151.106.294.192.423a1.05 1.05 0 0 0 .385.308.82.82 0 0 0 .462.115.65.65 0 0 0 .385 0z"/><path d="M.997 10.125l24.678 49.74a1.13 1.13 0 0 0 .385.462c.186.113.399.173.616.173s.431-.06.616-.173a1.33 1.33 0 0 0 .462-.462l15.053-29.066.038-.039 9.625-20.674c.074-.143.114-.301.115-.462a.98.98 0 0 0-.077-.462c-.038-.159-.118-.305-.231-.423a1.33 1.33 0 0 0-.346-.308.82.82 0 0 0-.462-.115c-.155-.006-.31.007-.462.038-.159.038-.306.118-.424.231a.88.88 0 0 0-.27.385l-9.625 20.674-14.014 27.065L3.038 8.97l-.269-.385c-.118-.113-.264-.193-.423-.231-.144-.07-.309-.084-.462-.038-.161.002-.319.041-.462.115a1.33 1.33 0 0 0-.346.308c-.087.13-.152.273-.192.423-.051.148-.064.307-.038.462.028.173.08.341.154.501z"/><path d="M12.816 32.28h27.488c.157-.007.312-.033.462-.077.145-.044.268-.14.346-.27.112-.104.193-.237.231-.385.084-.219.106-.456.066-.686s-.143-.446-.297-.623a2.12 2.12 0 0 0-.346-.269 1.92 1.92 0 0 0-.462-.077H12.816a1.92 1.92 0 0 0-.462.077c-.145.044-.268.14-.347.269-.112.104-.192.237-.231.385-.116.297-.116.627 0 .924.039.148.119.282.231.385.106.102.222.192.347.27.154.038.308.038.462.077zm76.612-10.356H71.565a1.92 1.92 0 0 0-.462.077c-.145.044-.268.14-.347.27-.112.104-.192.237-.231.385a1.92 1.92 0 0 0-.077.462V37.94a1.92 1.92 0 0 0 .077.462c.038.148.119.281.231.385.106.102.222.192.347.27a1.92 1.92 0 0 0 .462.077h17.863v2.502H71.565a4.22 4.22 0 0 1-.693-.077c-.236-.046-.467-.111-.693-.192a3.09 3.09 0 0 1-.616-.308l-.539-.462c-.325-.334-.586-.726-.77-1.155-.082-.226-.146-.457-.192-.693a4.22 4.22 0 0 1-.077-.693V23.156a4.22 4.22 0 0 1 .077-.693c.046-.236.111-.467.192-.693a3.41 3.41 0 0 1 .308-.654 2.03 2.03 0 0 1 .462-.539c.171-.163.351-.318.539-.462.193-.125.4-.229.616-.308.226-.082.457-.146.693-.192a4.22 4.22 0 0 1 .693-.077h17.863v2.387zm33.533-2.502v2.502h-17.209v7.353h13.821v2.541h-13.821v7.353h17.209v2.522h-19.596V19.422h19.596z"/></g><path d="M158.418 23.214v6.506a4.36 4.36 0 0 1-.077.693c-.046.236-.111.467-.193.693s-.182.448-.308.654a3.11 3.11 0 0 1-.462.539c-.171.163-.351.318-.539.462a3.05 3.05 0 0 1-.616.308l-.693.231c-.228.045-.46.07-.693.077h-3.272l6.737 8.277h-3.234l-6.698-8.297h-7.854a5.86 5.86 0 0 1-1.155-.115v8.393h-2.425V19.46h17.94c.233.006.464.032.693.077a4.68 4.68 0 0 1 .693.193c.225.077.433.194.616.346a3.96 3.96 0 0 1 .962 1.001c.126.207.229.426.308.655s.147.457.193.693a5.96 5.96 0 0 1 .077.789zm-17.941 7.7h14.36a1.92 1.92 0 0 0 .462-.077c.075-.015.145-.047.206-.094s.108-.107.141-.176c.112-.104.192-.237.231-.385s.07-.305.077-.462v-6.506c-.002-.309-.111-.609-.308-.847-.1-.118-.223-.214-.363-.28a1.08 1.08 0 0 0-.446-.105h-14.36c-.156.007-.311.033-.462.077-.144.044-.268.14-.346.27-.112.104-.193.237-.231.385-.044.15-.07.305-.077.462v6.506a1.09 1.09 0 0 0 .098.466 1.08 1.08 0 0 0 .287.381.93.93 0 0 0 .731.385z" fill="#fff"/><path fill-rule="evenodd" d="M171.276 19.422h21.483v2.502h-9.51v19.711h-2.425V21.924h-9.548v-2.502zm34.572 22.271V19.46h2.425v22.233h-2.425zm34.726-22.252h3.118l-8.97 11.126 9.009 11.126h-3.157l-8.008-9.856h-6.93v9.856h-2.425V19.46h2.464v9.856h6.93l7.969-9.875z" fill="#fff"/></g><defs><clipPath id="A"><path fill="#fff" transform="translate(.15 .5)" d="M0 0h243.58v60H0z"/></clipPath></defs></svg>