<svg xmlns="http://www.w3.org/2000/svg" width="181" height="61" fill="none" xmlns:v="https://vecta.io/nano"><g clip-path="url(#A)" fill="#fff"><path d="M46.878 30.552a16.6 16.6 0 0 1-16.596 16.527 16.6 16.6 0 0 1-16.595-16.594 16.6 16.6 0 0 1 16.595-16.597h.075V.5h-.075C13.724.5.3 13.925.3 30.484s13.425 29.981 29.982 29.981c16.536 0 29.946-13.387 29.984-29.914H46.878z"/><path d="M46.877 30.551h-16.52V13.867h16.52v16.684z" fill-opacity=".5"/><path d="M171.122 27.949a5.68 5.68 0 0 1-5.678-5.678 5.68 5.68 0 0 1 5.678-5.678 5.68 5.68 0 0 1 5.677 5.678 5.68 5.68 0 0 1-5.677 5.678zm0-15.388a9.71 9.71 0 0 0 0 19.42 9.71 9.71 0 0 0 0-19.42zm-38.589 7.506h0c.835-2.116 2.896-3.612 5.307-3.612s4.474 1.496 5.308 3.612h0-10.615zm5.309-7.619a9.71 9.71 0 0 0 0 19.42c3.677 0 6.877-2.045 8.525-5.061l-3.593-1.789c-.985 1.699-2.825 2.843-4.934 2.843-2.627 0-4.841-1.778-5.501-4.196h12.923 2.173a8.63 8.63 0 0 0 .043-.323h.001l.015-.148.022-.22.008-.115.015-.251.004-.1.007-.35a9.61 9.61 0 0 0-.226-2.091c-.956-4.358-4.839-7.619-9.482-7.619zM109.526 22.92a.23.23 0 0 1-.007.052l-.026.173-.019.104-.026.132-.04.17a1.5 1.5 0 0 1-.048.184l-.059.199c-.002.012-.007.021-.012.031-.021.073-.047.147-.075.217-.118.321-.265.629-.44.919l-.13.206-.096.144-.088.123a.38.38 0 0 1-.031.04l-.151.191-.113.132-.121.134-.153.156-.107.104-.111.104-.168.142-.215.17a5.51 5.51 0 0 1-.463.312l-.226.13-.256.13c-.078.04-.158.076-.241.109l-.248.097c-.007.005-.014.007-.021.009l-.229.078-.05.014-.243.069a2.31 2.31 0 0 1-.248.056c-.019.007-.038.01-.057.012l-.151.029-.201.031-.225.026-.264.019-.272.007a5.66 5.66 0 0 1-4.015-1.664l-.366-.404a5.74 5.74 0 0 1-.766-1.212c-.102-.217-.189-.444-.265-.678l-.068-.234-.109-.482-.066-.496-.021-.508.021-.508.066-.496.109-.482.068-.234a5.83 5.83 0 0 1 .265-.678 5.62 5.62 0 0 1 .766-1.212 5.44 5.44 0 0 1 .366-.404 5.66 5.66 0 0 1 4.015-1.663l.272.007.264.019c.076.005.152.014.225.026l.059.007.142.024.151.028c.019.002.038.005.057.012a2.34 2.34 0 0 1 .248.057c.082.019.163.042.243.068l.05.014.229.078c.007.003.014.005.021.01a2.55 2.55 0 0 1 .248.097l.241.109.256.13.226.13a5.51 5.51 0 0 1 .463.312l.215.17.168.142.111.104a1.51 1.51 0 0 1 .107.104l.158.163.09.097.137.161.153.194.031.04.088.123.094.139.246.409.125.246.201.472.056.158.133.447.047.21.019.092.026.149.021.139c.005.024.007.045.01.069a5.55 5.55 0 0 1 .047.723c0 .246-.016.487-.047.723zm0-8.632c-1.59-1.134-3.53-1.803-5.629-1.803-5.363 0-9.711 4.348-9.711 9.711a9.71 9.71 0 0 0 9.711 9.709 9.67 9.67 0 0 0 5.629-1.801v1.333h4.028V12.944h-4.028v1.345zm-16.408 6.136l-.023-.354-.011-.143-.047-.435h-.001l-.085-.567H82.2v4.401h6.119c-.954 3.105-3.828 5.36-7.226 5.36-.795 0-1.562-.123-2.282-.353a7.61 7.61 0 0 1-5.047-7.181c0-4.204 3.387-7.614 7.563-7.614.784 0 1.54.12 2.25.343 1.32.464 2.462 1.273 3.331 2.322l3.518-2.837a12.13 12.13 0 0 0-5.403-3.826c-.007-.003-.015-.005-.023-.007-1.137-.357-2.347-.549-3.602-.549-6.689 0-12.112 5.459-12.112 12.192 0 5.31 3.375 9.829 8.083 11.5a12.03 12.03 0 0 0 3.654.565c5.916 0 10.843-4.27 11.901-9.915a12.2 12.2 0 0 0 .213-2.277c0-.162-.004-.323-.011-.483l-.007-.143zm55.37 10.919h4.267v-4.266h-4.267v4.266zm6.508-18.079h4.266V8.997h-4.266v4.267zm0 18.355h4.266V15.084h-4.266v16.535zM122.079 8.786h-4.028v4.149h-2.397v3.896h2.397V27.18l-.001.136.001.066a4.94 4.94 0 0 0 .911 2.792 3.42 3.42 0 0 0 1.704 1.261 7.81 7.81 0 0 0 1.413.342 8.29 8.29 0 0 0 1.205.088c1.314 0 2.539-.306 3.565-.832v-3.284c-.575.434-1.354.7-2.211.7a3.95 3.95 0 0 1-1.283-.209c-.337-.116-.63-.329-.832-.617a2.43 2.43 0 0 1-.444-1.284v-.205-3.865-5.438h4.801v-3.896h-4.801V8.786zM99.855 46.674H74.171v-.711h25.684v.711zm76.09-.067h-25.684v-.711h25.684v.711zm-64.253 2.312l.115-.094.115.094 1.485 1.318.147.115-.136.136-.24.22a2.58 2.58 0 0 1-.262.209 4.07 4.07 0 0 1-1.621.711c-.592.118-1.186.108-1.778-.032-.928-.216-1.691-.697-2.291-1.443-.557-.704-.857-1.499-.899-2.385h-.011V36.672h2.322v10.887c0 .418.133.795.398 1.13s.603.551 1.014.649a1.79 1.79 0 0 0 .858 0c.286-.077.54-.209.763-.398l.021-.021z"/><path d="M117.657 43.522a2.71 2.71 0 0 0-1.987.826 2.73 2.73 0 0 0-.815 1.987c0 .774.272 1.437.815 1.987.551.544 1.214.816 1.987.816a2.73 2.73 0 0 0 1.988-.816 2.71 2.71 0 0 0 .826-1.987 2.71 2.71 0 0 0-.826-1.987 2.71 2.71 0 0 0-1.988-.826zm1.632-2.29a5.51 5.51 0 0 1 1.182.544v-.774h2.541v10.616h-2.541v-.722a5.51 5.51 0 0 1-1.182.544 5.4 5.4 0 0 1-1.632.251c-.725 0-1.419-.139-2.081-.418a5.34 5.34 0 0 1-1.705-1.15 5.33 5.33 0 0 1-1.15-1.705 5.31 5.31 0 0 1-.419-2.081 5.31 5.31 0 0 1 .419-2.081 5.34 5.34 0 0 1 1.15-1.705c.495-.495 1.064-.879 1.705-1.15a5.31 5.31 0 0 1 2.081-.419 5.4 5.4 0 0 1 1.632.251zm7.971 3.818c-.495.502-.743 1.105-.743 1.809 0 .697.248 1.297.743 1.799a2.47 2.47 0 0 0 1.799.742 2.48 2.48 0 0 0 1.809-.742c.495-.502.743-1.102.743-1.799 0-.704-.248-1.307-.743-1.809a2.48 2.48 0 0 0-1.809-.742 2.47 2.47 0 0 0-1.799.742zm1.799-3.054c1.345 0 2.493.474 3.441 1.423s1.422 2.095 1.422 3.441a4.67 4.67 0 0 1-1.422 3.43c-.948.948-2.096 1.422-3.441 1.422a4.83 4.83 0 0 1-1.475-.23 4.67 4.67 0 0 1-1.067-.492v.648h-2.311V36.683h2.311v6.035a4.64 4.64 0 0 1 1.067-.492 4.84 4.84 0 0 1 1.475-.23z"/><path d="M140.598 41.002c.37 0 .732.063 1.088.188.349.133.669.317.962.554a3.37 3.37 0 0 1 .7.816c.182.314.312.649.388 1.004l.063.282h-2.228l-.063-.125c-.049-.091-.104-.171-.167-.241a.97.97 0 0 0-.23-.188c-.084-.056-.175-.097-.272-.126s-.199-.042-.304-.042h-2.98c-.147 0-.287.028-.419.084a.99.99 0 0 0-.356.23 1 1 0 0 0-.23.356c-.056.133-.084.272-.084.418a1.04 1.04 0 0 0 .084.408c.05.119.115.226.2.324l.03.031c.106.105.224.185.356.24.132.049.272.073.419.073h3.043c.418 0 .826.084 1.224.251.356.146.676.355.962.627l.074.063a3.18 3.18 0 0 1 .7 1.046 3.2 3.2 0 0 1 0 2.447c-.16.397-.394.746-.7 1.046l-.074.073a3.36 3.36 0 0 1-.962.628c-.398.16-.806.24-1.224.24h-3.19c-.425 0-.833-.08-1.224-.24a3.41 3.41 0 0 1-1.046-.701c-.293-.292-.518-.631-.679-1.014-.16-.376-.248-.774-.262-1.192v-.24h2.269l.011.23c.007.132.039.261.095.387a1.06 1.06 0 0 0 .219.324c.104.104.223.185.355.241s.273.084.419.084h2.888c.145 0 .284-.028.418-.084.124-.056.24-.132.345-.23v-.011c.104-.098.184-.213.24-.345s.083-.272.083-.418a.99.99 0 0 0-.083-.408 1.12 1.12 0 0 0-.24-.356c-.098-.105-.213-.185-.345-.241a1.08 1.08 0 0 0-.418-.084h-3.045a3.19 3.19 0 0 1-1.224-.24c-.362-.146-.687-.356-.972-.628l-.031-.031-.043-.042a3.15 3.15 0 0 1-.69-1.035 3.13 3.13 0 0 1-.251-1.224 3.08 3.08 0 0 1 .251-1.224 3.06 3.06 0 0 1 .629-.973l.03-.031.031-.042c.307-.3.656-.533 1.046-.701.391-.16.799-.24 1.224-.24h3.19z"/></g><defs><clipPath id="A"><path fill="#fff" transform="translate(.3 .5)" d="M0 0h180.535v60H0z"/></clipPath></defs></svg>