<svg width="66" height="61" viewBox="0 0 66 61" fill="none" xmlns="http://www.w3.org/2000/svg">
<path d="M2.07561 58.9237C1.82043 58.6685 1.69922 58.3113 1.69922 57.8392V39.6318H3.24308V57.903H13.9225V59.3065H3.12825C2.68167 59.3065 2.3308 59.1789 2.07561 58.9237Z" fill="white"/>
<path d="M28.1237 53.5712H19.2688L17.1062 59.3065H15.5049L23.0073 39.6318H23.7409C24.1875 39.6318 24.5256 39.9253 24.7553 40.5058L31.8685 59.3065H30.2672L28.1237 53.5712ZM19.7473 52.2507H27.6452L23.709 41.7116H23.6835L19.7473 52.2507Z" fill="white"/>
<path d="M34.4199 58.9109C34.1584 58.6494 34.0244 58.3049 34.0244 57.8711V39.6318H42.2094C43.766 39.6318 45.0164 40.0146 45.9606 40.7865C46.9048 41.5521 47.3769 42.5664 47.3769 43.8232V45.4245C47.3769 46.19 47.211 46.8982 46.8729 47.5489C46.5348 48.1932 46.0882 48.6972 45.5268 49.0545V49.08C46.4646 49.3033 47.211 49.769 47.7724 50.4707C48.3338 51.1725 48.6145 51.9955 48.6145 52.9269V54.4452C48.6145 55.9062 48.1361 57.08 47.1791 57.9731C46.2222 58.8663 44.9463 59.3065 43.3577 59.3065H35.4598C35.0324 59.3065 34.6879 59.1725 34.4199 58.9109ZM42.7708 48.71C43.6895 48.71 44.4295 48.4101 44.9909 47.8105C45.5523 47.2108 45.833 46.4133 45.833 45.4245V43.8168C45.833 42.9939 45.5013 42.3176 44.8378 41.7945C44.168 41.2714 43.294 41.0098 42.2094 41.0098H35.5747V48.71H42.7708ZM43.2174 57.8966C44.3785 57.8966 45.3099 57.584 46.0117 56.9524C46.7134 56.3272 47.0643 55.4851 47.0643 54.4389V52.9205C47.0643 52.0593 46.7581 51.3575 46.152 50.828C45.5459 50.2921 44.7421 50.0242 43.7469 50.0242H35.5747V57.8966H43.2174Z" fill="white"/>
<path d="M52.3272 58.0371C51.3447 57.0419 50.8535 55.6958 50.8535 53.9925H52.3719C52.3719 55.2684 52.7291 56.2764 53.4372 57.0164C54.1518 57.7564 55.1151 58.1264 56.3336 58.1264H59.4787C60.6589 58.1264 61.6095 57.8521 62.3304 57.3098C63.0513 56.7676 63.4149 56.0531 63.4149 55.1727V53.2588C63.4149 52.5443 63.1534 51.9382 62.6302 51.4342C62.1071 50.9303 61.3735 50.5985 60.4357 50.4518L55.4022 49.6097C54.0561 49.3864 52.9971 48.8952 52.2379 48.1488C51.4787 47.4023 51.1023 46.4645 51.1023 45.3354V43.7022C51.1023 42.4071 51.5872 41.3673 52.5632 40.5826C53.5393 39.7979 54.8216 39.4023 56.4165 39.4023H59.5935C61.1119 39.4023 62.3368 39.8617 63.2618 40.7803C64.1868 41.699 64.6526 42.9047 64.6526 44.4039H63.1342C63.1342 43.3194 62.8089 42.439 62.1645 41.7756C61.5202 41.1121 60.6589 40.7803 59.5935 40.7803H56.4165C55.2746 40.7803 54.3623 41.0483 53.6733 41.5842C52.9907 42.12 52.6462 42.8282 52.6462 43.7086V45.3417C52.6462 46.0882 52.9014 46.7197 53.4053 47.2237C53.9093 47.7277 54.6239 48.0594 55.5425 48.2062L60.5441 49.0802C61.9285 49.3226 63.013 49.8138 63.7913 50.5411C64.5696 51.2748 64.9588 52.1807 64.9588 53.2652V55.1791C64.9588 56.4933 64.4612 57.5459 63.466 58.3433C62.4707 59.1408 61.1502 59.5363 59.5042 59.5363H56.3081C54.6366 59.5299 53.3097 59.0323 52.3272 58.0371Z" fill="white"/>
<path d="M17.6352 2.29269C16.3529 1.74405 14.8919 1.46973 13.2524 1.46973H1.75V22.3437C1.75 23.307 2.0626 24.0917 2.68142 24.685C3.30024 25.2847 4.10407 25.5846 5.0929 25.5846H13.3927C16.3784 25.5846 18.6431 24.819 20.1806 23.2943C20.6974 22.7839 21.1248 22.1906 21.4693 21.5144L17.6352 2.29269ZM17.7372 16.3533C17.7372 18.0056 17.3608 19.256 16.6017 20.1109C15.8425 20.9594 14.7261 21.3868 13.2588 21.3868H6.50279V5.67387H13.1184C14.4964 5.67387 15.6128 6.06941 16.4613 6.86048C17.3098 7.65154 17.7372 8.70418 17.7372 10.012V16.3533Z" fill="white"/>
<path d="M64.6402 5.6037V1.46973H50.5094L50.4328 1.84612L46.5859 20.9913V25.5846H51.3387V16.2129H63.3642V12.079H51.3387V5.6037H64.6402Z" fill="white"/>
<path d="M48.5446 1.46973L46.5861 11.2177L44.2384 22.8924C44.0534 23.811 43.7153 24.4873 43.224 24.9275C42.7328 25.3613 42.0566 25.5846 41.2081 25.5846H39.2113L34.0757 9.04867H34.0055L28.7679 25.5846H26.7711C25.9928 25.5846 25.3357 25.3868 24.8062 24.9976C24.2767 24.6085 23.9067 23.9067 23.7025 22.8988L22.4776 16.7744L19.8811 3.68982L19.4346 1.46973H24.2575L27.2177 18.5925H27.2878L32.2831 2.74564H34.0055C34.5797 2.74564 35.0773 2.89237 35.5047 3.19221C35.9322 3.49205 36.2575 4.03432 36.4872 4.81263L40.6913 18.5543H40.7615L43.7217 1.46973H48.5446Z" fill="white"/>
<path d="M16.5701 28.2197C18.0182 28.2197 19.3133 28.6216 20.4106 29.4255C21.2335 30.0251 21.846 30.7652 22.3882 31.4223C22.822 31.9518 23.275 32.5004 23.7343 32.8322C24.0214 33.0363 24.3021 33.1767 24.7487 33.1767C25.2016 33.1767 25.4823 33.0363 25.763 32.8322C26.2224 32.5004 26.6689 31.9518 27.1091 31.4223C27.6514 30.7652 28.2638 30.0188 29.0868 29.4255C30.1841 28.628 31.4791 28.2197 32.9273 28.2197C34.3755 28.2197 35.6705 28.6216 36.7678 29.4255C37.5908 30.0251 38.2032 30.7652 38.7455 31.4223C39.1793 31.9518 39.6323 32.5004 40.0916 32.8322C40.3787 33.0363 40.6594 33.1767 41.1059 33.1767C41.5589 33.1767 41.8396 33.0363 42.1203 32.8322C42.5796 32.5004 43.0262 31.9518 43.4664 31.4223C44.0086 30.7652 44.6211 30.0188 45.4441 29.4255C46.5413 28.628 47.8364 28.2197 49.2846 28.2197C50.7327 28.2197 52.0278 28.6216 53.1251 29.4255C53.948 30.0251 54.5605 30.7652 55.1027 31.4223C55.5366 31.9518 55.9895 32.5004 56.4488 32.8322C56.7359 33.0363 57.0166 33.1767 57.4632 33.1767C57.9161 33.1767 58.1968 33.0363 58.4775 32.8322C58.9369 32.5004 59.3834 31.9518 59.8236 31.4223C60.3659 30.7652 60.9783 30.0188 61.8013 29.4255C62.637 28.8194 63.5876 28.4366 64.6338 28.2899V31.6456C64.6275 31.6456 64.6275 31.6519 64.6211 31.6519C64.1618 31.9837 63.7152 32.5323 63.275 33.0618C62.7327 33.7189 62.1203 34.4653 61.2973 35.0586C60.2 35.8561 58.905 36.2644 57.4568 36.2644C56.0086 36.2644 54.7136 35.8625 53.6163 35.0586C52.7933 34.459 52.1809 33.7189 51.6386 33.0618C51.2048 32.5323 50.7519 31.9837 50.2925 31.6519C50.0055 31.4478 49.7248 31.3074 49.2782 31.3074C48.8252 31.3074 48.5445 31.4478 48.2638 31.6519C47.8109 31.9837 47.3579 32.5323 46.9177 33.0618C46.3755 33.7189 45.763 34.4653 44.9401 35.0586C43.8428 35.8561 42.5477 36.2644 41.0996 36.2644C39.6514 36.2644 38.3563 35.8625 37.259 35.0586C36.4361 34.459 35.8236 33.7189 35.2814 33.0618C34.8476 32.5323 34.3946 31.9837 33.9353 31.6519C33.6482 31.4478 33.3675 31.3074 32.9209 31.3074C32.468 31.3074 32.1873 31.4478 31.9066 31.6519C31.4472 31.9837 31.0007 32.5323 30.5605 33.0618C30.0182 33.7189 29.4058 34.4653 28.5828 35.0586C27.4855 35.8561 26.1905 36.2644 24.7423 36.2644C23.2941 36.2644 21.9991 35.8625 20.9018 35.0586C20.0788 34.459 19.4664 33.7189 18.9241 33.0618C18.4903 32.5323 18.0374 31.9837 17.578 31.6519C17.2909 31.4478 17.0102 31.3074 16.5637 31.3074C16.1107 31.3074 15.83 31.4478 15.5493 31.6519C15.0964 31.9837 14.6434 32.5323 14.2032 33.0555C13.661 33.7125 13.0485 34.459 12.2256 35.0523C11.1283 35.8497 9.83321 36.258 8.38504 36.258C6.93688 36.258 5.64182 35.8561 4.54453 35.0523C3.72156 34.4526 3.10912 33.7125 2.56686 33.0555C2.13305 32.5259 1.6801 31.9773 1.22077 31.6456C1.21439 31.6456 1.21439 31.6392 1.20801 31.6392V28.2835C2.25426 28.4303 3.20482 28.813 4.04054 29.4191C4.86351 30.0188 5.47595 30.7588 6.01822 31.4159C6.45203 31.9454 6.90498 32.494 7.36431 32.8258C7.65139 33.0299 7.93209 33.1703 8.37866 33.1703C8.83161 33.1703 9.11231 33.0299 9.39302 32.8258C9.85235 32.494 10.2989 31.9454 10.7391 31.4159C11.2814 30.7588 11.8938 30.0124 12.7168 29.4191C13.8332 28.6216 15.1219 28.2197 16.5701 28.2197Z" fill="white"/>
</svg>
