<svg xmlns="http://www.w3.org/2000/svg" width="334" height="61" fill="none" xmlns:v="https://vecta.io/nano"><g clip-path="url(#B)"><mask id="A" maskUnits="userSpaceOnUse" x="0" y="0" width="334" height="61"><path d="M333.983.5H.233v60h333.75V.5z" fill="#fff"/></mask><g mask="url(#A)"><path fill-rule="evenodd" d="M95.414 22.318c.723 0 1.417-.287 1.928-.799s.799-1.205.799-1.928-.287-1.417-.799-1.928a2.73 2.73 0 0 0-1.928-.799c-1.5 0-2.719 1.223-2.719 2.726v2.728h2.719zm0-10.909a8.18 8.18 0 0 1 8.159 8.181c0 4.513-3.66 8.182-8.157 8.182h-2.719V30.5c0 16.541-13.421 30-29.916 30H2.952c-1.5 0-2.719-1.222-2.719-2.728s1.219-2.726 2.719-2.726h59.831c13.494 0 24.474-11.012 24.474-24.544v-2.73h-2.719c-4.5 0-8.16-3.669-8.16-8.182 0-7.519-6.099-13.635-13.598-13.635h-5.437a2.72 2.72 0 0 1-2.719-2.728A2.72 2.72 0 0 1 57.344.5h5.438c10.496 0 19.037 8.563 19.037 19.089a2.73 2.73 0 0 0 2.719 2.728h2.719v-2.728c0-4.511 3.66-8.181 8.158-8.181zm-51.669 8.183c-1.504 0-2.719-1.221-2.719-2.728a2.72 2.72 0 0 1 2.719-2.726h16.32c1.5 0 2.719 1.219 2.719 2.726s-1.219 2.728-2.719 2.728h-16.32zM30.147 33.226a2.72 2.72 0 0 1-2.719-2.728c0-1.506 1.217-2.726 2.719-2.726h16.318c1.504 0 2.719 1.223 2.719 2.726s-1.215 2.728-2.719 2.728h-16.32.002zM16.545 46.863c-1.502 0-2.719-1.219-2.719-2.728s1.217-2.726 2.719-2.726h16.32c1.5 0 2.719 1.221 2.719 2.726s-1.219 2.728-2.719 2.728h-16.32zm60.93-11.636c0 1.744-5.231 1.909-6.969 1.909a3.15 3.15 0 0 1-3.144-3.154c0-1.742 1.406-3.15 3.144-3.15 2.719 0 6.969 2.653 6.969 4.395zm42.904 6.711c3.463 0 10.787-.068 13.585-.268.468-.066.798-.266.798-.6 0-3.675-3.063-6.21-6.392-6.21-4.462 0-7.591 3.538-7.991 7.078zm8.057 12.019c2.274-.02 4.503-.642 6.459-1.802.799-.469 1.598-.868 2.597-.868 1.6 0 3.064 1.669 3.064 3.472 0 1.269-.799 2.269-1.999 3.071-2.462 1.601-5.593 2.67-10.719 2.67-8.258 0-14.784-6.611-14.918-14.693 0-9.347 6.66-16.894 15.315-16.894 7.793 0 13.454 6.143 13.454 12.287 0 3.472-.533 5.209-5.194 5.276-3.731.131-8.26.066-16.181.131.264 4.009 3.594 7.348 8.122 7.348zm23.169-42.206c2.665 0 3.73 1.335 3.73 4.14l-.332 32.655c0 2.94.199 5.811.266 8.483-.067 2.137-.932 3.139-3.397 3.339s-4.062-1.136-4.129-5.143c-.332-8.614-.066-28.581 0-39.934.067-2.406 1.732-3.54 3.862-3.54zm24.771 42.405c4.928 0 8.723-3.739 8.723-9.416 0-6.075-4.062-9.349-8.389-9.349-4.795 0-8.325 4.074-8.325 10.016 0 5.076 3.53 8.749 7.991 8.749zm15.649-5.543c0 2.873.065 5.676.266 8.55 0 2.402-1.864 3.069-3.795 3.069-2.197 0-2.797-1.669-3.262-5.143-1.999 3.474-5.462 5.344-9.79 5.344-8.857 0-14.45-6.679-14.45-14.826 0-9.75 6.66-16.494 15.315-16.494 3.729 0 7.059 1.669 9.056 4.674.135-.803.268-1.869.401-2.471.465-1.267 1.397-2.07 2.929-2.07 2.664 0 3.463 1.538 3.463 4.074l-.068 5.141-.065 10.151zm27.632-18.097c1.132.534 2.062 1.269 2.062 2.606 0 1.867-.864 3.137-2.861 3.137-1.931 0-4.262-1.536-8.059-1.536-3.062 0-5.659 1.47-5.659 3.741 0 2.469 2.997 2.67 6.327 3.137 6.392.87 11.253 2.872 11.253 9.019 0 6.274-4.931 9.881-12.652 9.881-5.859 0-11.854-2.004-11.854-4.341 0-1.869.731-3.607 2.863-3.607 2.464 0 4.995 1.937 9.657 1.937 2.93 0 5.325-1.268 5.325-3.673 0-2.537-2.329-3.204-6.458-3.804-5.327-.737-11.121-2.138-11.121-8.149 0-5.876 5.995-9.881 12.254-9.881 3.795 0 6.926.6 8.923 1.534zm4.524 2.203c0-1.937 1.266-3.139 3.129-3.139h3.394l.137-4.875c.066-2.269.998-4.406 3.928-4.406 2.198 0 2.996 1.202 2.996 3.337 0 1.47-.133 3.806-.133 5.878h5.728c1.93-.067 3.062 1.001 3.062 3.071 0 1.804-.866 3.139-2.795 3.139h-5.995V47.48c0 4.005.799 6.341 3.531 6.341 1.597 0 1.997-.534 3.062-.534 1.73 0 2.662 1.603 2.662 3.071 0 1.603-.53 2.471-1.462 3.006-1.333.735-2.4 1.001-4.995 1.001-6.326 0-9.855-3.473-9.855-11.953l.131-12.623h-3.662c-1.997 0-2.863-1.2-2.863-3.071zm34.226.334l-.133 12.088c0 4.541 1.266 8.949 6.126 8.949 6.06 0 7.924-4.807 7.991-11.822v-9.347c0-2.539 1.798-3.675 3.795-3.675 2.265 0 3.596 1.003 3.596 3.538l-.065 15.294c.065 4.541.266 7.881.332 9.218.067 2.001-1.598 2.938-3.529 2.938s-2.996-.868-3.263-2.541c-.2-1.2-.133-2.269-.333-3.604-1.932 3.806-5.194 6.411-9.923 6.411-8.389 0-11.985-5.944-11.985-14.226l.066-13.153c0-2.737 1.599-3.806 4.063-3.806 2.197 0 3.262 1.133 3.262 3.737zm29.23-.733c0-2.203 1.331-3.339 3.729-3.339 1.864 0 2.929 1.069 3.195 2.805l.135 2.338c1.663-3.473 5.726-5.276 9.056-5.276 4.528 0 7.723 2.539 8.989 5.876 1.864-3.272 5.593-5.809 9.923-5.876 8.124-.067 11.319 5.606 11.319 13.022v6.744c0 2.738-.066 5.475-.131 8.749-.135 2.338-2.2 2.872-3.732 2.872-2.062 0-3.594-1.069-3.594-2.938l.266-14.293c0-4.406-1.333-7.746-5.394-7.746-3.795 0-6.593 2.537-6.726 7.213-.067 2.537-.067 3.872-.067 7.078v6.945c-.066 2.338-1.331 3.741-3.863 3.741-1.931-.067-3.395-1.069-3.395-3.075.067-5.874.2-7.811.135-14.889-.135-3.806-1.8-7.078-5.595-7.078-5.127 0-7.06 4.072-7.06 9.816l.068 12.354c-.068 2.07-1.8 2.872-3.795 2.872-1.733 0-3.531-.802-3.531-3.075 0-.999-.065-1.534 0-3.604l.201-10.018-.133-11.218z" fill="#fff"/></g></g><defs><clipPath id="B"><path fill="#fff" transform="translate(.233 .5)" d="M0 0h333.75v60H0z"/></clipPath></defs></svg>