<svg width="399" height="61" viewBox="0 0 399 61" fill="none" xmlns="http://www.w3.org/2000/svg">
<path fill-rule="evenodd" clip-rule="evenodd" d="M35.209 44.9757C36.0612 44.4679 36.8521 43.8638 37.5663 43.1753C38.4665 42.1607 38.8022 41.6038 38.8022 41.6038V36.9961C37.3451 34.1887 34.7589 32.1671 32.1728 31.6025L25.551 35.4245C25.551 35.4245 24.3152 36.3247 25.2154 36.9961C26.1156 37.5606 28.6941 39.1321 28.6941 39.1321L8.70677 50.7049L8.48553 46.6617C8.48553 46.6617 8.14987 45.3114 7.02844 45.9903C5.79259 46.6617 0.62793 49.5835 0.62793 49.5835V57.2199C0.62793 58.12 2.98521 60.3629 5.57135 60.4773C8.04307 60.5918 8.7144 60.2561 9.50016 59.9128L35.3311 44.8613L35.209 44.9757Z" fill="white"/>
<path fill-rule="evenodd" clip-rule="evenodd" d="M36.6736 26.8878L38.8097 24.4161V19.3583L37.3526 17.2222L8.36107 0.5L4.0989 0.606802C4.0989 0.606802 0.391328 1.39256 0.50347 4.19994L0.610273 11.165L7.01079 14.8726C7.01079 14.8726 8.58231 15.6583 8.46788 13.9724C8.35345 12.4008 8.58231 10.0436 8.58231 10.0436L28.7985 21.7232L8.70666 33.296V27.6812L11.2928 28.9171C11.2928 28.9171 12.193 29.3672 12.5287 29.1383C12.8643 28.9094 18.5935 25.6596 18.5935 25.6596C18.5935 25.6596 19.2648 25.0951 19.2648 24.645C19.2648 24.1949 18.8147 23.7448 18.8147 23.7448L1.84842 13.9724C1.84842 13.9724 1.28389 13.6367 0.833795 13.8579C0.383699 14.0792 0.726992 47.7829 0.726992 47.7829L36.7804 26.8878H36.6736Z" fill="white"/>
<path fill-rule="evenodd" clip-rule="evenodd" d="M60.3685 44.9758H53.6323V32.6172C59.0258 32.6172 69.8052 31.0457 68.5693 39.4679C67.898 43.9612 64.6405 44.9758 60.3685 44.9758ZM60.933 29.0241H53.6323V18.1303C56.5541 18.1303 61.3831 18.0158 63.8548 18.8016C66.9978 19.7018 67.5624 21.1589 67.5624 23.9663C67.5624 27.6738 64.5261 29.0241 60.8262 29.0241H60.933ZM49.4746 48.3477H62.6189C75.5344 48.3477 76.3202 31.6103 65.4263 30.7101C66.8834 29.8099 71.8268 29.9243 71.8268 22.6236C71.8268 12.9656 57.8967 14.7584 49.4746 14.7584V48.3477Z" fill="white"/>
<path fill-rule="evenodd" clip-rule="evenodd" d="M114.616 47.7826C118.21 47.7826 124.389 47.1113 124.389 50.8188V51.9403C124.389 56.3192 115.852 57.3338 111.695 56.2047C109.223 55.5334 107.873 53.8474 108.773 50.9256C109.452 48.6828 111.702 47.7826 114.616 47.7826ZM110.688 31.8309C110.688 27.5664 111.809 25.6516 116.531 25.6516C123.161 25.6516 122.146 33.7381 120.124 35.3096C117.538 37.3312 110.688 37.11 110.688 31.7165V31.8309ZM106.759 30.4882C106.759 33.9669 107.88 37.5677 110.916 38.3535C109.345 40.3751 108.109 40.7108 108.109 43.6326C108.109 44.8684 108.78 45.3185 109.566 46.1043L110.016 46.4399C102.494 48.2403 102.83 58.0051 111.252 59.4698C115.295 60.1412 121.025 59.8055 124.053 58.0127C126.41 56.5557 128.211 54.8697 128.211 51.2766C128.211 40.8328 113.609 46.2187 111.809 43.3045C110.909 41.9542 112.259 40.0471 113.495 39.4825C114.845 38.8112 113.274 39.4825 116.302 39.4825C120.91 39.4825 125.51 36.6751 125.51 32.1818C125.51 29.1456 125.51 28.9243 124.16 26.3382C125.396 26.2238 127.417 25.7737 128.653 25.7737V23.2943H121.131C118.995 23.2943 114.052 21.494 109.787 24.6446C108.101 25.8805 106.751 27.9021 106.751 30.595V30.4882H106.759Z" fill="white"/>
<path fill-rule="evenodd" clip-rule="evenodd" d="M143.262 25.995C147.084 25.995 149.442 28.6879 149.442 32.3955V33.1812H136.524C136.638 29.3593 139.331 25.8805 143.26 25.8805L143.262 25.995ZM132.369 35.2029C132.369 43.9607 136.191 48.9041 145.284 48.9041C146.856 48.9041 148.091 48.6829 149.213 48.454C150.67 48.1183 151.57 47.5538 152.806 47.2181V43.8462C149.999 44.0675 151.349 45.1965 143.262 45.1965C139.105 45.1965 136.526 41.2677 136.526 36.5455H153.035C155.057 36.5455 153.149 29.0236 151.799 26.8875C146.741 19.1444 132.369 21.6161 132.369 35.2029Z" fill="white"/>
<path fill-rule="evenodd" clip-rule="evenodd" d="M88.1143 24.8667V26.2169H91.7074V42.1686C91.7074 50.8196 103.166 49.3549 103.166 47.4477V45.2049C101.03 45.2049 95.6438 47.0053 95.6438 41.2761V26.1025H102.945V23.0663H95.6438V17.2227H93.1721C93.1721 17.7872 92.0507 21.6016 91.8218 22.0517C91.0361 23.6232 88.1143 23.2875 88.1143 24.7446V24.8667Z" fill="white"/>
<path fill-rule="evenodd" clip-rule="evenodd" d="M175.944 24.8667V26.217H179.537V41.9398C179.537 50.9264 190.995 49.4617 190.995 47.5545V45.3117C188.859 45.3117 183.473 47.2189 183.473 40.8184V26.217H190.774V23.1807H183.473V17.3447C179.43 17.3447 181.566 17.7948 179.766 22.0593C178.866 24.0809 175.944 23.4096 175.944 24.9811V24.8667Z" fill="white"/>
<path fill-rule="evenodd" clip-rule="evenodd" d="M163.593 27.6816C163.593 25.7744 163.372 24.8743 163.372 23.1883H160V48.3479H163.929V35.7681C163.929 30.7102 166.736 26.2245 171.23 26.2245C172.687 26.2245 172.801 26.4458 174.266 26.4458C174.266 24.8743 174.601 24.5386 174.601 22.8526C171.458 22.7382 169.658 21.2811 165.279 25.8889C164.608 26.5602 164.379 27.1247 163.708 27.6893H163.593V27.6816Z" fill="white"/>
<path fill-rule="evenodd" clip-rule="evenodd" d="M79.3486 48.3471H83.2851V23.1875H79.3486V48.3471Z" fill="white"/>
<path fill-rule="evenodd" clip-rule="evenodd" d="M79.1274 16.2228C79.1274 21.7231 86.0925 18.2444 83.1707 14.6513C81.9348 13.1866 79.1274 13.7511 79.1274 16.2228Z" fill="white"/>
<path d="M205.991 12.3174L216.327 41.6267H216.735L227.072 12.3174H231.492L218.708 47.135H214.355L201.571 12.3174H205.991Z" fill="white"/>
<path d="M244.889 47.679C242.373 47.679 240.202 47.1236 238.377 46.0129C236.564 44.8909 235.164 43.3268 234.178 41.3207C233.204 39.3033 232.716 36.9572 232.716 34.2824C232.716 31.6076 233.204 29.2501 234.178 27.2101C235.164 25.1586 236.536 23.5606 238.292 22.4158C240.061 21.2598 242.123 20.6818 244.481 20.6818C245.841 20.6818 247.184 20.9084 248.51 21.3618C249.836 21.8151 251.043 22.5518 252.131 23.5719C253.219 24.5806 254.086 25.918 254.732 27.5841C255.378 29.2502 255.701 31.3016 255.701 33.7384V35.4384H235.572V31.9703H251.621C251.621 30.4969 251.326 29.1821 250.737 28.0261C250.159 26.87 249.332 25.9577 248.255 25.289C247.19 24.6203 245.931 24.2859 244.481 24.2859C242.883 24.2859 241.5 24.6826 240.333 25.476C239.177 26.258 238.287 27.2781 237.663 28.5361C237.04 29.7942 236.728 31.1429 236.728 32.5823V34.8944C236.728 36.8665 237.068 38.5382 237.748 39.9096C238.44 41.2697 239.398 42.3067 240.622 43.0208C241.846 43.7235 243.268 44.0748 244.889 44.0748C245.943 44.0748 246.895 43.9275 247.745 43.6328C248.606 43.3268 249.349 42.8734 249.972 42.2727C250.595 41.6607 251.077 40.9013 251.417 39.9946L255.293 41.0827C254.885 42.3974 254.2 43.5535 253.236 44.5508C252.273 45.5369 251.083 46.3076 249.666 46.863C248.249 47.407 246.657 47.679 244.889 47.679Z" fill="white"/>
<path d="M265.817 31.4263V47.135H261.805V21.0218H265.681V25.102H266.021C266.633 23.7759 267.562 22.7105 268.809 21.9058C270.056 21.0898 271.665 20.6818 273.637 20.6818C275.405 20.6818 276.952 21.0444 278.278 21.7698C279.604 22.4838 280.636 23.5719 281.372 25.034C282.109 26.4847 282.477 28.3208 282.477 30.5422V47.135H278.465V30.8142C278.465 28.7628 277.933 27.1647 276.867 26.02C275.802 24.864 274.34 24.2859 272.481 24.2859C271.2 24.2859 270.056 24.5636 269.047 25.119C268.049 25.6743 267.262 26.4847 266.684 27.5501C266.106 28.6155 265.817 29.9075 265.817 31.4263Z" fill="white"/>
<path d="M301.166 21.0218V24.4219H287.633V21.0218H301.166ZM291.577 14.7655H295.589V39.6546C295.589 40.788 295.754 41.638 296.082 42.2047C296.422 42.7601 296.853 43.1341 297.374 43.3268C297.907 43.5081 298.468 43.5988 299.057 43.5988C299.5 43.5988 299.862 43.5761 300.146 43.5308C300.429 43.4741 300.656 43.4288 300.826 43.3948L301.642 46.999C301.37 47.101 300.99 47.203 300.503 47.305C300.015 47.4183 299.397 47.475 298.649 47.475C297.516 47.475 296.405 47.2313 295.317 46.7439C294.241 46.2566 293.345 45.5142 292.631 44.5168C291.928 43.5195 291.577 42.2614 291.577 40.7427V14.7655Z" fill="white"/>
<path d="M323.658 36.4585V21.0218H327.67V47.135H323.658V42.7148H323.386C322.774 44.0408 321.822 45.1685 320.529 46.0979C319.237 47.016 317.605 47.475 315.633 47.475C314.001 47.475 312.55 47.118 311.281 46.4039C310.012 45.6786 309.014 44.5905 308.289 43.1398C307.564 41.6777 307.201 39.836 307.201 37.6145V21.0218H311.213V37.3425C311.213 39.2466 311.746 40.7653 312.811 41.8987C313.888 43.0321 315.259 43.5988 316.925 43.5988C317.923 43.5988 318.937 43.3438 319.968 42.8338C321.011 42.3237 321.884 41.5417 322.587 40.4877C323.301 39.4336 323.658 38.0906 323.658 36.4585Z" fill="white"/>
<path d="M335.018 47.135V21.0218H338.895V24.966H339.167C339.643 23.6739 340.504 22.6255 341.751 21.8208C342.997 21.0161 344.403 20.6138 345.967 20.6138C346.262 20.6138 346.63 20.6194 347.072 20.6308C347.514 20.6421 347.848 20.6591 348.075 20.6818V24.7619C347.939 24.7279 347.627 24.6769 347.14 24.6089C346.664 24.5296 346.16 24.4899 345.627 24.4899C344.357 24.4899 343.224 24.7563 342.227 25.289C341.241 25.8103 340.459 26.5357 339.881 27.4651C339.314 28.3831 339.031 29.4315 339.031 30.6102V47.135H335.018Z" fill="white"/>
<path d="M362.985 47.679C360.469 47.679 358.298 47.1236 356.473 46.0129C354.66 44.8909 353.26 43.3268 352.274 41.3207C351.299 39.3033 350.812 36.9572 350.812 34.2824C350.812 31.6076 351.299 29.2501 352.274 27.2101C353.26 25.1586 354.632 23.5606 356.388 22.4158C358.156 21.2598 360.219 20.6818 362.577 20.6818C363.937 20.6818 365.28 20.9084 366.606 21.3618C367.932 21.8151 369.139 22.5518 370.227 23.5719C371.315 24.5806 372.182 25.918 372.828 27.5841C373.474 29.2502 373.797 31.3016 373.797 33.7384V35.4384H353.668V31.9703H369.717C369.717 30.4969 369.422 29.1821 368.833 28.0261C368.255 26.87 367.427 25.9577 366.351 25.289C365.285 24.6203 364.027 24.2859 362.577 24.2859C360.979 24.2859 359.596 24.6826 358.428 25.476C357.272 26.258 356.383 27.2781 355.759 28.5361C355.136 29.7942 354.824 31.1429 354.824 32.5823V34.8944C354.824 36.8665 355.164 38.5382 355.844 39.9096C356.536 41.2697 357.493 42.3067 358.717 43.0208C359.941 43.7235 361.364 44.0748 362.985 44.0748C364.039 44.0748 364.991 43.9275 365.841 43.6328C366.702 43.3268 367.444 42.8734 368.068 42.2727C368.691 41.6607 369.173 40.9013 369.513 39.9946L373.389 41.0827C372.981 42.3974 372.295 43.5535 371.332 44.5508C370.369 45.5369 369.179 46.3076 367.762 46.863C366.345 47.407 364.753 47.679 362.985 47.679Z" fill="white"/>
<path d="M398.397 26.87L394.793 27.8901C394.566 27.2894 394.232 26.7057 393.79 26.139C393.359 25.561 392.77 25.085 392.022 24.7109C391.274 24.3369 390.316 24.1499 389.149 24.1499C387.551 24.1499 386.219 24.5183 385.154 25.255C384.1 25.9803 383.573 26.904 383.573 28.0261C383.573 29.0235 383.935 29.8112 384.661 30.3892C385.386 30.9672 386.519 31.4489 388.061 31.8343L391.937 32.7863C394.272 33.353 396.011 34.22 397.156 35.3874C398.301 36.5435 398.873 38.0339 398.873 39.8586C398.873 41.3547 398.443 42.6921 397.581 43.8708C396.731 45.0495 395.541 45.9789 394.011 46.6589C392.481 47.339 390.702 47.679 388.673 47.679C386.009 47.679 383.805 47.101 382.059 45.9449C380.314 44.7889 379.209 43.1001 378.744 40.8787L382.553 39.9266C382.915 41.332 383.601 42.3861 384.61 43.0888C385.63 43.7915 386.961 44.1428 388.605 44.1428C390.475 44.1428 391.96 43.7461 393.059 42.9528C394.17 42.1481 394.725 41.1847 394.725 40.0626C394.725 39.1559 394.408 38.3966 393.773 37.7845C393.138 37.1612 392.164 36.6965 390.849 36.3905L386.497 35.3704C384.105 34.8037 382.348 33.9254 381.226 32.7353C380.116 31.5339 379.56 30.0322 379.56 28.2301C379.56 26.7567 379.974 25.4533 380.801 24.3199C381.64 23.1865 382.779 22.2968 384.219 21.6508C385.669 21.0048 387.313 20.6818 389.149 20.6818C391.733 20.6818 393.762 21.2485 395.235 22.3818C396.72 23.5152 397.774 25.0113 398.397 26.87Z" fill="white"/>
</svg>
