<svg xmlns="http://www.w3.org/2000/svg" width="166" height="55" fill="none" xmlns:v="https://vecta.io/nano"><g clip-path="url(#A)" fill="#fff"><path d="M7.31 11.428c.288-1.359.793-2.728 1.513-4.108s1.606-2.605 2.656-3.675 2.234-1.946 3.552-2.625S17.79 0 19.355 0l-5.127 24.029h.247l11.242-12.91h10.254l-12.539 12.91c2.183.165 3.871.607 5.065 1.328s2.028 1.627 2.502 2.718.669 2.316.587 3.675-.268 2.759-.556 4.2l-1.297 6.239h-9.76l.988-4.88c.329-1.606.484-2.883.463-3.83s-.196-1.668-.525-2.162-.793-.813-1.39-.957-1.266-.216-2.008-.216H12.93l-2.533 12.045H.824L7.31 11.428zm60.074-.309L60.836 42.19H47.679c-2.594 0-4.756-.35-6.486-1.05s-3.058-1.719-3.984-3.058-1.482-2.944-1.668-4.818-.031-3.984.463-6.331L39.34 11.12h9.451l-3.336 15.813c-.494 2.347-.319 4.19.525 5.528s2.152 2.008 3.922 2.008h3.089l4.942-23.349h9.451zm4.852 43.734c-1.729 0-3.099-.371-4.108-1.112s-1.75-1.668-2.224-2.78-.721-2.327-.741-3.645.093-2.574.34-3.768l6.857-32.43h14.887c2.224 0 4.18.35 5.868 1.05s3.058 1.709 4.108 3.027 1.73 2.965 2.038 4.942.196 4.221-.34 6.733a20.86 20.86 0 0 1-2.502 6.332c-1.174 1.956-2.574 3.655-4.2 5.096s-3.449 2.574-5.467 3.397-4.097 1.235-6.239 1.235c-.7 0-1.555-.103-2.564-.309a22.79 22.79 0 0 1-2.934-.803l-2.78 13.034zm9.76-20.323c.824 0 1.647-.175 2.471-.525s1.606-.865 2.347-1.544 1.39-1.503 1.946-2.471.958-2.069 1.205-3.305c.494-2.306.35-4.19-.432-5.652s-1.894-2.193-3.336-2.193h-6.3L76.56 34.53h5.436zm44.879 7.66h-14.949c-2.182 0-4.118-.34-5.806-1.019s-3.058-1.688-4.108-3.027-1.74-2.975-2.069-4.911-.226-4.18.309-6.733c.494-2.265 1.276-4.334 2.347-6.208a17.45 17.45 0 0 1 4.077-4.849c1.648-1.359 3.541-2.419 5.683-3.181s4.55-1.143 7.227-1.143h13.836l-6.547 31.071zm-9.698-23.287c-.824 0-1.648.175-2.471.525s-1.596.865-2.317 1.544-1.359 1.493-1.914 2.44-.958 2.038-1.205 3.274c-.494 2.306-.35 4.18.432 5.621s1.895 2.162 3.336 2.162h6.239l3.335-15.566h-5.435zm15.97 27.549h12.601c1.112 0 2.048-.278 2.81-.834s1.246-1.369 1.452-2.44l.618-2.903a32.88 32.88 0 0 1-3.151.618c-1.112.165-2.018.247-2.718.247-3.994 0-6.949-1.235-8.864-3.706s-2.398-5.992-1.451-10.563l3.335-15.751h9.451l-3.15 14.949c-.494 2.347-.299 4.159.587 5.436s2.543 1.915 4.972 1.915h2.039l4.694-22.299h9.451l-6.486 30.762a18.62 18.62 0 0 1-1.729 4.818c-.783 1.482-1.751 2.769-2.904 3.861s-2.491 1.946-4.015 2.563-3.212.927-5.065.927h-14.083l1.606-7.598z"/></g><defs><clipPath id="A"><path fill="#fff" transform="translate(.824)" d="M0 0h165v55H0z"/></clipPath></defs></svg>