<svg width="43" height="45" viewBox="0 0 43 45" fill="none" xmlns="http://www.w3.org/2000/svg">
<path d="M28.0058 29.3799L13.2958 44.0899L0.295816 31.0899C0.154787 30.95 0.0586059 30.7713 0.0195363 30.5766C-0.0195334 30.3818 0.000278108 30.1799 0.0764449 29.9964C0.152612 29.813 0.281683 29.6564 0.447203 29.5466C0.612722 29.4368 0.807191 29.3787 1.00582 29.3799H28.0058Z" fill="#1BE6D6"/>
<path d="M13.2959 44.0898H28.0059L28.0059 29.3798H13.2959L13.2959 44.0898Z" fill="#6C30ED"/>
<path d="M13.2959 29.3701H28.0059V14.6601H13.2959V29.3701Z" fill="#8D43FF"/>
<path d="M27.956 14.71L42.666 14.71V-3.91006e-05L27.956 -3.91006e-05V14.71Z" fill="#6C30ED"/>
<path d="M28.0059 14.71L13.2959 14.71V10.61C13.2959 9.21664 13.5703 7.83695 14.1035 6.54969C14.6367 5.26242 15.4182 4.09279 16.4035 3.10756C17.3887 2.12233 18.5583 1.3408 19.8456 0.807599C21.1329 0.274397 22.5125 -3.91006e-05 23.9059 -3.91006e-05H28.0059L28.0059 14.71Z" fill="#6C30ED"/>
<path d="M13.2656 29.3901H27.9756V14.6801H13.2656V29.3901Z" fill="#13AEFF"/>
<path d="M42.626 29.3901L27.956 29.3901V25.2901C27.956 23.896 28.2307 22.5155 28.7646 21.2276C29.2984 19.9396 30.0808 18.7696 31.0671 17.7842C32.0534 16.7988 33.2242 16.0175 34.5126 15.4849C35.8011 14.9523 37.1818 14.6788 38.576 14.6801H42.626V29.3901Z" fill="#1BE6D6"/>
</svg>
