<svg width="440" height="521" viewBox="0 0 440 521" fill="none" xmlns="http://www.w3.org/2000/svg">
<g clip-path="url(#clip0_173_224)">
<path d="M19.0001 24.3502C8.28005 84.8802 22.37 148.81 60 197.82C69.5601 210.27 80.4501 223.61 94.4201 231.29C111.42 240.65 130.84 239.29 145.22 225.84C156.61 215.17 163 199 169.17 185C176.17 169.134 182.473 152.98 188.08 136.54C200.67 99.5402 209.93 61.5402 219.17 23.6202C224.93 -0.0697594 188.39 -10.1798 182.61 13.5502C168.69 70.7502 155.61 129.4 128.85 182.18C126.082 187.594 122.728 192.687 118.85 197.37C118.209 198.128 117.331 198.648 116.358 198.844C115.385 199.04 114.374 198.901 113.49 198.45C105.1 194.25 97.7701 184.85 91.9201 177.62C77.3801 159.62 66.64 137.52 60.2701 115.13C52.8401 89.0002 50.8601 60.7502 55.4901 34.4302C57.2701 24.3602 52.7801 14.0002 42.2501 11.1102C33.1101 8.60024 20.7401 14.2202 19.0001 24.3502Z" fill="white"/>
<path d="M258.84 36.4404C262.1 92.3404 254.9 147.91 248.84 203.37C247.73 213.56 258.34 222.32 267.84 222.32C279.01 222.32 285.68 213.59 286.84 203.37C292.84 147.91 300.06 92.3704 296.84 36.4404C296.24 26.2204 288.55 17.4404 277.89 17.4404C268.09 17.4404 258.34 26.1304 258.89 36.4404H258.84Z" fill="white"/>
<path d="M215.87 299.34C215.29 289.07 207.58 280.34 196.87 280.34C187.06 280.34 177.33 289.02 177.87 299.34C180.02 337.04 180.72 374.62 177.43 412.28C177.02 416.94 176.66 421.85 176.2 426.63C174.62 425.45 173.06 424.25 171.51 423.05C158.18 412.73 145.32 401.05 134.86 387.82C124.32 374.34 117.02 358.48 107.47 344.34C98.3997 330.99 88.098 318.518 76.7 307.09C69.34 299.6 60.36 292.65 49.22 293C36.56 293.36 28.51 302.19 21.84 311.91C11.45 327 5.33998 345.34 2.48998 363.34C-4.77002 409.45 6.77998 455.69 0.619984 501.78C-0.740016 511.95 10.3 520.78 19.62 520.78C30.99 520.78 37.21 512.02 38.62 501.78C44.13 460.58 34.32 419.3 38.62 378.08C39.91 365.62 43.16 352.41 48.95 340.77C49.1868 340.284 49.5173 339.848 49.9227 339.49C50.3281 339.131 50.8004 338.856 51.3123 338.681C51.8243 338.505 52.3659 338.432 52.9061 338.467C53.4462 338.501 53.9743 338.641 54.46 338.88C54.9123 339.099 55.3194 339.401 55.66 339.77C59.35 343.86 65 350 68 353.89C68.25 354.26 70.42 357.11 70.33 356.99C71.1 358.05 71.86 359.12 72.61 360.19C74.72 363.19 76.74 366.27 78.72 369.37C83.5 376.88 87.91 384.6 92.47 392.24C102.255 408.4 114.319 423.065 128.29 435.78C135.4 442.32 142.93 448.37 150.6 454.25C158.9 460.62 167.38 468.13 177.71 470.82C181.915 471.916 186.323 471.972 190.555 470.985C194.787 469.997 198.715 467.995 202 465.15C213.35 455.2 212.76 439.33 214.16 425.81C218.52 383.6 218.29 341.62 215.87 299.34Z" fill="white"/>
<path d="M259.28 309.34C257.12 338.11 259.54 369.72 270.28 396.76C280.63 422.95 301.94 444.91 332.4 439.83C362 434.89 378.76 407.5 388.52 381.67C398.99 353.94 400.31 323.51 394.46 294.62C392.46 284.62 380.52 278.81 371.14 281.39C360.7 284.26 355.87 294.63 357.9 304.7C361.806 324.501 360.643 344.969 354.52 364.2C349.78 379.39 341.31 399.76 324.65 402.9C320.16 403.75 316.65 401.18 312.73 396.59C313.82 397.86 310.64 393.59 310.18 392.79C309.07 390.94 308.06 389.05 307.12 387.11C306.569 385.986 306.084 384.831 305.67 383.65C304.81 381.3 304.04 378.91 303.35 376.51C297.08 354.66 295.53 331.96 297.24 309.34C298.01 299.12 287.98 290.34 278.24 290.34C267.34 290.34 260.05 299.04 259.29 309.34H259.28Z" fill="white"/>
<path d="M421.1 460.8C431.301 460.8 439.57 452.531 439.57 442.33C439.57 432.13 431.301 423.86 421.1 423.86C410.899 423.86 402.63 432.13 402.63 442.33C402.63 452.531 410.899 460.8 421.1 460.8Z" fill="white"/>
</g>
<defs>
<clipPath id="clip0_173_224">
<rect width="439.57" height="520.78" fill="white"/>
</clipPath>
</defs>
</svg>
