<svg width="595" height="427" viewBox="0 0 595 427" fill="none" xmlns="http://www.w3.org/2000/svg">
<path d="M0 213.085C0 95.595 95.58 0.00500042 213.08 0.00500042C241.184 -0.187534 269.049 5.18166 295.069 15.8034C321.09 26.4251 344.752 42.0895 364.693 61.8945C384.634 81.6995 400.46 105.254 411.26 131.201C422.06 157.148 427.62 184.975 427.62 213.08C427.62 241.185 422.06 269.012 411.26 294.959C400.46 320.906 384.634 344.461 364.693 364.266C344.752 384.071 321.09 399.735 295.069 410.357C269.049 420.978 241.184 426.348 213.08 426.155C95.58 426.155 0 330.575 0 213.085ZM360.29 213.085C360.321 186.278 353.021 159.972 339.179 137.014C325.338 114.057 305.482 95.3214 281.76 82.835C260.616 71.599 237.024 65.7594 213.08 65.835C131.9 65.835 65.86 131.835 65.86 213.055C65.86 294.275 131.86 360.265 213.08 360.265C237.024 360.338 260.615 354.498 281.76 343.265C305.471 330.784 325.32 312.06 339.161 289.115C353.002 266.171 360.308 239.881 360.29 213.085Z" fill="white"/>
<path d="M226.72 53.7349L281.72 24.6149C312.395 8.44993 346.547 0.00296103 381.22 0.00488314C498.72 0.00488314 594.31 95.5949 594.31 213.085C594.31 330.575 498.72 426.155 381.22 426.155C346.557 426.153 312.416 417.706 281.75 401.545L226.75 372.435L281.75 343.335C305.452 330.824 325.292 312.083 339.13 289.131C352.969 266.179 360.282 239.886 360.282 213.085C360.282 186.284 352.969 159.99 339.13 137.038C325.292 114.086 305.452 95.3453 281.75 82.8349L226.72 53.7349ZM426.15 213.085C426.212 267.627 405.32 320.108 367.79 359.685C372.25 360.085 376.727 360.288 381.22 360.295C462.4 360.295 528.45 294.295 528.45 213.085C528.45 131.875 462.4 65.8649 381.22 65.8649C376.727 65.8649 372.254 66.0716 367.8 66.4849C405.332 106.06 426.221 158.543 426.15 213.085Z" fill="white"/>
</svg>
