<svg width="101" height="101" viewBox="0 0 101 101" fill="none" xmlns="http://www.w3.org/2000/svg">
<path d="M100.6 50.29C100.602 60.2388 97.6536 69.9648 92.1278 78.2379C86.602 86.511 78.7469 92.9597 69.5559 96.7683C60.365 100.577 50.251 101.574 40.4931 99.6347C30.7352 97.695 21.7717 92.9052 14.7361 85.871C7.70051 78.8368 2.9089 69.8742 0.967255 60.1167C-0.974392 50.3592 0.0211313 40.245 3.82793 31.0533C7.63472 21.8616 14.0818 14.0053 22.3538 8.47777C30.6258 2.9503 40.3512 1.9661e-07 50.3 0C63.6387 -2.636e-07 76.4312 5.29808 85.864 14.729C95.2968 24.1599 100.597 36.9513 100.6 50.29ZM72.28 21.83H60.53V33.58H72.28V21.83ZM66.4 51.69H33.09C32.3209 51.69 31.5594 51.8416 30.849 52.1363C30.1386 52.4309 29.4933 52.8627 28.9499 53.407C28.4066 53.9512 27.9759 54.5973 27.6825 55.3082C27.3891 56.0191 27.2387 56.7809 27.24 57.55C27.24 59.1015 27.8564 60.5895 28.9534 61.6866C30.0505 62.7837 31.5385 63.4 33.09 63.4H66.4V51.69Z" fill="#fff"/>
</svg>
