<svg width="177" height="177" viewBox="0 0 177 177" fill="none" xmlns="http://www.w3.org/2000/svg">
<path d="M88.2 16.1C98 16.1 107.8 19.8 115.3 27.3L149.1 61.1C164 76 164 100.3 149.1 115.2L115.3 149C107.8 156.5 98 160.2 88.2 160.2C78.4 160.2 68.6 156.5 61.1 149L27.3 115.2C12.4 100.3 12.4 76 27.3 61.1L61.1 27.3C68.6 19.9 78.4 16.1 88.2 16.1ZM88.2 0C73.7 0 60 5.70002 49.7 15.9L15.9 49.7C5.59999 60 0 73.7 0 88.2C0 102.7 5.69999 116.4 15.9 126.7L49.7 160.5C60 170.8 73.6 176.4 88.2 176.4C102.7 176.4 116.4 170.7 126.7 160.5L160.5 126.7C170.8 116.4 176.4 102.8 176.4 88.2C176.4 73.7 170.7 60 160.5 49.7L126.7 15.9C116.3 5.70002 102.7 0 88.2 0Z" fill="white"/>
<path d="M102.7 134H73.7004C56.4004 134 42.4004 119.9 42.4004 102.7V73.7004C42.4004 56.4004 56.5004 42.4004 73.7004 42.4004H102.7C120 42.4004 134 56.5004 134 73.7004V102.7C134 120 119.9 134 102.7 134ZM73.6004 58.5004C65.2004 58.5004 58.4004 65.3004 58.4004 73.7004V102.7C58.4004 111.1 65.2004 117.9 73.6004 117.9H102.6C111 117.9 117.8 111.1 117.8 102.7V73.7004C117.8 65.3004 111 58.5004 102.6 58.5004H73.6004Z" fill="white"/>
</svg>
